<svg width="117" height="102" viewBox="0 0 117 102" fill="none" xmlns="http://www.w3.org/2000/svg">
<g clip-path="url(#clip0_1995_189)">
<path d="M65.7373 93.2598H77.4131C78.4334 93.2598 79.2603 92.4329 79.2603 91.4126C79.2603 90.3923 78.4334 89.5654 77.4131 89.5654H65.7373C64.717 89.5654 63.8901 90.3923 63.8901 91.4126C63.8901 92.4329 64.717 93.2598 65.7373 93.2598Z" fill="#5C12A7" stroke="#5C12A7"/>
<path d="M81.8148 21.7034C74.4413 22.4215 67.7355 26.3272 63.4749 32.4136L63.473 32.4164C62.9002 33.2464 63.0992 34.381 63.918 34.9672C64.7376 35.5546 65.8757 35.375 66.4759 34.567L66.4803 34.5611L66.4845 34.5551C70.5464 28.7374 77.1943 25.2711 84.2896 25.2727H84.2979L84.3062 25.2724C96.106 24.8824 106.691 35.3507 106.657 47.0772C105.071 46.5152 103.399 46.2292 101.713 46.2328C100.693 46.2334 99.8671 47.06 99.8671 48.08C99.8671 49.0981 100.69 49.9237 101.707 49.9272C105.346 50.0151 108.019 51.3965 109.793 53.415C111.573 55.4412 112.474 58.142 112.495 60.9028C112.37 66.5727 108.114 71.8852 102.397 71.6057L102.384 71.6051H102.372H91.3856C90.3653 71.6051 89.5384 72.432 89.5384 73.4523C89.5384 74.4726 90.3653 75.2995 91.3856 75.2995H102.319C110.185 75.6585 116.085 68.5148 116.188 60.9107V60.8999L116.187 60.8891C116.031 55.6447 113.974 51.4246 110.301 48.9408C111.391 34.9867 99.6631 21.9813 85.682 21.5941C77.5901 -4.90245 43.3613 -6.98277 32.4641 18.4479C24.2728 20.4436 17.7725 24.3352 13.6215 29.4692C9.49754 34.5698 7.71188 40.8756 8.88154 47.6889C2.24712 51.1173 0.245068 58.3269 1.24119 63.8744L1.24503 63.8957C1.74333 67.0898 3.37285 69.9992 5.83766 72.0924L3.68834 58.0001L10.6884 45.0001L14.7275 31.0947L25.8202 24.0538L47.6884 4.26012L56.4995 2.26012L72.1884 6.00016L79.1884 13.5001L81.8148 21.7034ZM81.8148 21.7034C74.5109 0.279226 47.3113 -2.06567 36.8792 17.7892C41.6096 17.5275 46.3275 18.5732 50.5117 20.82L50.5182 20.8235C51.4095 21.3192 51.7311 22.4438 51.235 23.335C50.74 24.2252 49.6176 24.5471 48.7269 24.0538C44.2822 21.6697 39.1548 20.8818 34.2001 21.8205C26.8042 23.5215 20.8859 26.7642 17.0706 31.0947C13.3684 35.2968 11.626 40.5435 12.4428 46.481C15.7125 45.9274 19.0794 46.4666 22.0183 48.0239L22.0299 48.0301C22.903 48.5228 23.2241 49.6235 22.7512 50.5088C22.2792 51.394 21.1863 51.74 20.2904 51.2882L20.278 51.2819C17.6283 49.8521 14.5093 49.5658 11.6436 50.4888C5.85861 52.7984 4.06192 58.6806 4.87734 63.2222L4.87883 63.2305L4.88004 63.2388C5.22102 65.5915 6.40814 67.7398 8.21907 69.28C10.0308 70.8201 12.3415 71.6463 14.7186 71.6043L14.7275 71.6042H25.8202C26.8405 71.6042 27.6674 72.4311 27.6674 73.4514C27.6674 74.4718 26.8405 75.2986 25.8202 75.2986H14.7014C11.4576 75.3313 8.31053 74.193 5.83766 72.0924L3.68834 58.0001L10.6884 45.0001L14.7275 31.0947L25.8202 24.0538L47.6884 4.26012L56.4995 2.26012L72.1884 6.00016L79.1884 13.5001L81.8148 21.7034Z" fill="#5C12A7"/>
<path d="M63.4749 32.4136C67.7355 26.3272 74.4413 22.4215 81.8148 21.7034C74.5109 0.279226 47.3113 -2.06567 36.8792 17.7892C41.6096 17.5275 46.3275 18.5732 50.5117 20.82L50.5182 20.8235C51.4095 21.3192 51.7311 22.4438 51.235 23.335C50.74 24.2252 49.6176 24.5471 48.7269 24.0538C44.2822 21.6697 39.1548 20.8818 34.2001 21.8205C26.8042 23.5215 20.8859 26.7642 17.0706 31.0947C13.3684 35.2968 11.626 40.5435 12.4428 46.481C15.7125 45.9274 19.0794 46.4666 22.0183 48.0239L22.0299 48.0301C22.903 48.5228 23.2241 49.6235 22.7512 50.5088C22.2792 51.394 21.1863 51.74 20.2904 51.2882L20.278 51.2819C17.6283 49.8521 14.5093 49.5658 11.6436 50.4888C5.85861 52.7984 4.06192 58.6806 4.87734 63.2222L4.87883 63.2305L4.88004 63.2388C5.22102 65.5915 6.40814 67.7398 8.21907 69.28C10.0308 70.8201 12.3415 71.6463 14.7186 71.6043L14.7275 71.6042H25.8202C26.8405 71.6042 27.6674 72.4311 27.6674 73.4514C27.6674 74.4718 26.8405 75.2986 25.8202 75.2986H14.7014C11.4576 75.3313 8.31053 74.193 5.83766 72.0924C3.37285 69.9992 1.74333 67.0898 1.24503 63.8957L1.24119 63.8744C0.245068 58.3269 2.24712 51.1173 8.88154 47.6889C7.71188 40.8756 9.49754 34.5698 13.6215 29.4692C17.7725 24.3352 24.2728 20.4436 32.4641 18.4479C43.3613 -6.98277 77.5901 -4.90245 85.682 21.5941C99.6631 21.9813 111.391 34.9867 110.301 48.9408C113.974 51.4246 116.031 55.6447 116.187 60.8891L116.188 60.8999V60.9107C116.085 68.5148 110.185 75.6585 102.319 75.2995H91.3856C90.3653 75.2995 89.5384 74.4726 89.5384 73.4523C89.5384 72.432 90.3653 71.6051 91.3856 71.6051H102.372H102.384L102.397 71.6057C108.114 71.8852 112.37 66.5727 112.495 60.9028C112.474 58.142 111.573 55.4412 109.793 53.415C108.019 51.3965 105.346 50.0151 101.707 49.9272C100.69 49.9237 99.8671 49.0981 99.8671 48.08C99.8671 47.06 100.693 46.2334 101.713 46.2328C103.399 46.2292 105.071 46.5152 106.657 47.0772C106.691 35.3507 96.106 24.8824 84.3062 25.2724L84.2979 25.2727H84.2896C77.1943 25.2711 70.5464 28.7374 66.4845 34.5551L66.4803 34.5611L66.4759 34.567C65.8757 35.375 64.7376 35.5546 63.918 34.9672C63.0992 34.381 62.9002 33.2464 63.473 32.4164L63.4749 32.4136Z" stroke="#5C12A7"/>
<path d="M53.4724 60.1209C52.9974 59.5531 52.2953 59.2251 51.555 59.2251H39.58C37.8074 59.2251 36.0234 59.7815 34.6351 60.8878C33.2322 62.0056 32.29 63.6595 32.29 65.5418V92.2584C32.29 94.1407 33.2322 95.7946 34.6351 96.9124C36.0234 98.0187 37.8074 98.5751 39.58 98.5751H77.9C79.6727 98.5751 81.4566 98.0187 82.845 96.9124C84.2479 95.7946 85.19 94.1407 85.19 92.2584V71.2668C85.19 69.3845 84.2479 67.7306 82.845 66.6128C81.4566 65.5065 79.6727 64.9501 77.9 64.9501H57.513L53.4724 60.1209Z" stroke="#5C12A7" stroke-width="5" stroke-linecap="round" stroke-linejoin="round"/>
</g>
<defs>
<clipPath id="clip0_1995_189">
<rect width="117" height="102" fill="white"/>
</clipPath>
</defs>
</svg>
