<svg width="151" height="114" viewBox="0 0 151 114" fill="none" xmlns="http://www.w3.org/2000/svg">
<path d="M110.341 68.3941C108.327 65.3391 106.299 61 105.466 55.2835C103.934 44.7547 105.623 35.4009 100.139 25.7326C97.5002 21.0809 93.8641 17.047 89.1158 14.4808C88.4129 14.101 87.69 13.7611 86.9599 13.4411C86.9651 13.311 86.9777 13.1851 86.9777 13.055C86.9777 6.28945 81.7174 0.799316 75.2277 0.799316C68.7379 0.799316 63.4777 6.28919 63.4777 13.055C63.4777 13.1683 63.4903 13.2795 63.4924 13.3939C62.7213 13.7453 61.9586 14.1199 61.219 14.549C55.7616 17.5368 51.2923 22.24 48.7567 28.2273C45.1729 36.6873 46.2892 46.3443 44.9884 55.2832C44.1564 60.9997 42.1276 65.3398 40.1133 68.3938C35.2433 69.745 31.7529 73.1735 31.7529 77.1747C31.7529 82.3447 37.5691 86.5747 44.6779 86.5747H59.336C61.1887 93.332 67.5924 98.3247 75.2279 98.3247C82.8634 98.3247 89.267 93.332 91.1198 86.5747H105.778C112.887 86.5747 118.703 82.3447 118.703 77.1747C118.703 73.1735 115.213 69.7449 110.341 68.3948L110.341 68.3941ZM68.2883 11.7336C68.8737 8.19593 71.7609 5.49867 75.2271 5.49867C78.7175 5.49867 81.6215 8.23058 82.1807 11.8039C82.1828 11.805 82.1859 11.805 82.188 11.806C79.8433 11.2238 77.4325 10.9258 75.0247 10.9258C72.7555 10.9258 70.4904 11.1986 68.2863 11.7347C68.2863 11.7336 68.2873 11.7336 68.2884 11.7336L68.2883 11.7336ZM49.6392 55.9592C50.1134 52.7039 50.2844 49.4128 50.4502 46.2308C50.7544 40.3936 51.0419 34.8793 53.0835 30.0598C55.1397 25.2067 58.7329 21.2684 63.4758 18.6718L63.5262 18.6435L63.5766 18.6141C66.9495 16.6586 70.9077 15.6263 75.0244 15.6263C79.1663 15.6263 83.2663 16.6586 86.8805 18.6131C90.5344 20.5896 93.62 23.7632 96.0509 28.0499C99.3105 33.7959 99.6178 39.5219 99.9733 46.1521C100.141 49.2847 100.315 52.5245 100.816 55.9593C101.51 60.7275 102.931 64.647 104.541 67.7732H45.912C47.5224 64.6467 48.9428 60.7275 49.6384 55.9593L49.6392 55.9592ZM75.2269 93.6237C70.251 93.6237 65.999 90.6936 64.2879 86.5737H86.166C84.4549 90.6936 80.2029 93.6237 75.2271 93.6237H75.2269ZM105.777 81.8737H44.6769C40.0451 81.8737 36.4519 79.3474 36.4519 77.1737C36.4519 74.9999 40.0451 72.4737 44.6769 72.4737H105.777C110.409 72.4737 114.002 74.9999 114.002 77.1737C114.002 79.3474 110.409 81.8737 105.777 81.8737Z" fill="#5C12A7"/>
<path d="M90.4935 41.9237H90.5029C91.1481 41.9237 91.6727 41.4044 91.6779 40.7582C91.7524 31.4997 86.1545 24.4822 76.704 21.9874C76.0714 21.8206 75.4335 22.1951 75.2678 22.8236C75.102 23.4509 75.4765 24.094 76.1039 24.2588C84.5744 26.4944 89.3939 32.5007 89.3278 40.738C89.3226 41.3874 89.844 41.9183 90.4934 41.9235L90.4935 41.9237Z" fill="#5C12A7"/>
<path d="M91.6781 47.8C91.6781 49.3663 89.3281 49.3663 89.3281 47.8C89.3281 46.2337 91.6781 46.2337 91.6781 47.8Z" fill="#5C12A7"/>
<path d="M139.618 43.2719C139.064 43.6108 138.889 44.3336 139.228 44.8865C151.224 64.5416 151.07 92.0584 138.853 111.806C138.512 112.358 138.683 113.082 139.235 113.424C139.427 113.544 139.641 113.6 139.852 113.6C140.245 113.6 140.63 113.403 140.853 113.044C153.517 92.5731 153.673 64.0435 141.234 43.6643C140.895 43.1093 140.172 42.9331 139.618 43.273L139.618 43.2719Z" fill="#5C12A7"/>
<path d="M131.021 105.207C131.211 105.323 131.42 105.376 131.626 105.376C132.025 105.376 132.413 105.173 132.634 104.806C142.123 89.0561 142.237 67.7973 132.919 51.9059C132.589 51.3457 131.871 51.1579 131.311 51.4873C130.75 51.8157 130.563 52.5354 130.891 53.0946C139.787 68.2635 139.678 88.5567 130.621 103.594C130.286 104.15 130.465 104.872 131.021 105.207V105.207Z" fill="#5C12A7"/>
<path d="M125.233 93.5028C125.4 93.5857 125.577 93.6245 125.752 93.6245C126.185 93.6245 126.602 93.3832 126.807 92.9688C131.683 83.0789 131.683 71.269 126.807 61.3794C126.52 60.7992 125.818 60.5569 125.233 60.8454C124.651 61.1329 124.412 61.8368 124.699 62.4191C129.255 71.6585 129.255 82.69 124.699 91.9297C124.412 92.512 124.651 93.217 125.233 93.5034V93.5028Z" fill="#5C12A7"/>
<path d="M10.6044 113.6C10.8153 113.6 11.0293 113.543 11.2213 113.425C11.7731 113.083 11.9441 112.359 11.6032 111.807C-0.613598 92.0598 -0.766953 64.5411 11.2287 44.8871C11.5665 44.3342 11.3913 43.6114 10.8384 43.2725C10.2845 42.9326 9.56163 43.1088 9.22383 43.6638C-3.21533 64.0438 -3.05795 92.5734 9.60466 113.044C9.82707 113.403 10.211 113.6 10.6045 113.6L10.6044 113.6Z" fill="#5C12A7"/>
<path d="M19.4352 105.207C19.9912 104.873 20.1706 104.151 19.8349 103.595C10.7779 88.5591 10.6688 68.2642 19.5653 53.0953C19.8937 52.5351 19.7059 51.8154 19.1456 51.4881C18.5854 51.1586 17.8668 51.3464 17.5374 51.9067C8.21927 67.7964 8.33341 89.0555 17.8227 104.807C18.043 105.173 18.4312 105.376 18.8299 105.376C19.0365 105.376 19.2453 105.322 19.4352 105.207V105.207Z" fill="#5C12A7"/>
<path d="M25.223 60.8473C24.6397 60.5577 23.9357 60.8001 23.6493 61.3813C18.7731 71.2712 18.7731 83.0811 23.6493 92.9707C23.8549 93.384 24.2714 93.6253 24.7047 93.6253C24.8789 93.6253 25.0562 93.5865 25.223 93.5036C25.8053 93.2162 26.0444 92.5122 25.757 91.9299C21.2017 82.6905 21.2017 71.659 25.757 62.4193C26.0444 61.8381 25.8053 61.1331 25.223 60.8467V60.8473Z" fill="#5C12A7"/>
</svg>
