<svg width="20" height="20" viewBox="0 0 20 20" fill="none" xmlns="http://www.w3.org/2000/svg">
<path opacity="0.1" d="M10 0C4.47715 0 0 4.46674 0 9.97675C0 15.4868 4.47715 19.9535 10 19.9535C15.5228 19.9535 20 15.4868 20 9.97675C19.9936 4.4694 15.5202 0.00641402 10 0Z" fill="#FAD558"/>
<path d="M15.7722 6.81746L10.068 14.5403C9.93198 14.7203 9.72913 14.8383 9.50504 14.8677C9.28095 14.8971 9.05442 14.8354 8.87635 14.6966L4.80301 11.4475C4.44356 11.1605 4.38536 10.6371 4.67301 10.2785C4.96066 9.91993 5.48523 9.86186 5.84468 10.1488L9.24135 12.86L14.4305 5.83392C14.6007 5.57917 14.8974 5.43833 15.2029 5.46731C15.5083 5.49628 15.7731 5.6904 15.8921 5.97257C16.0111 6.25475 15.965 6.57933 15.7722 6.81746Z" fill="#FAD558"/>
</svg>
