<svg width="23" height="22" viewBox="0 0 23 22" fill="none" xmlns="http://www.w3.org/2000/svg">
<path fill-rule="evenodd" clip-rule="evenodd" d="M7.6238 0.361918C-0.127903 2.88399 -2.5849 12.9477 3.14423 18.7106C9.80405 25.4095 21.3452 21.1948 22.0429 11.8091C22.1846 9.90102 21.8037 7.54473 21.3533 7.54473C20.5965 7.54473 19.9312 8.87853 20.1059 10.0447C20.4758 12.5108 18.8148 16.4882 16.79 17.9851C14.0533 20.0085 9.93689 20.542 7.25606 19.2209C-1.28755 15.0108 1.08305 2.50086 10.5322 1.93386C12.2637 1.82991 12.8264 1.91388 14.2469 2.48763C15.9187 3.1629 15.9222 3.16317 16.594 2.63478C17.5393 1.89093 17.4642 1.74108 15.7176 0.886529C13.8621 -0.0212114 9.64178 -0.294722 7.6238 0.361918ZM14.2987 7.94757L9.31157 12.9401L7.61813 11.2618L5.92496 9.58377L5.18921 10.3192L4.45373 11.055L6.73658 13.3497C7.99235 14.612 9.14498 15.6447 9.29807 15.6447C9.45116 15.6447 12.1215 13.0973 15.2324 9.98391L20.8881 4.32336L20.2452 3.63891C19.8918 3.26253 19.5313 2.95473 19.4444 2.95473C19.3572 2.95473 17.0419 5.2014 14.2987 7.94757Z" fill="#F9CF40"/>
</svg>
