<svg width="102" height="102" viewBox="0 0 102 102" fill="none" xmlns="http://www.w3.org/2000/svg">
<path d="M98.322 39.3301H78.6574C76.8497 39.3301 75.38 40.7998 75.38 42.6075V45.8849C75.38 46.4848 75.5534 47.0401 75.8358 47.5237C75.5534 48.0072 75.38 48.5625 75.38 49.1624V52.4398H55.7154C53.9077 52.4398 52.438 53.9095 52.438 55.7172V58.9947C52.438 59.5945 52.6114 60.1498 52.8938 60.6334C52.6114 61.1169 52.438 61.6722 52.438 62.2721V65.5495H32.7734C30.9657 65.5495 29.496 67.0193 29.496 68.827V72.1044C29.496 72.7043 29.6694 73.2595 29.9517 73.7431C29.6694 74.2267 29.496 74.7819 29.496 75.3818V78.6592H9.83139C8.02369 78.6592 6.55396 80.129 6.55396 81.9367V85.2141C6.55396 85.814 6.72734 86.3693 7.00972 86.8528C6.72734 87.3364 6.55396 87.8917 6.55396 88.4915V91.769C6.55396 92.3689 6.72734 92.9241 7.00972 93.4077C6.72734 93.8912 6.55396 94.4465 6.55396 95.0464V98.3238C6.55396 100.132 8.02369 101.601 9.83139 101.601H29.496C30.0959 101.601 30.6511 101.428 31.1347 101.145C31.6182 101.428 32.1735 101.601 32.7734 101.601H52.438C53.0379 101.601 53.5931 101.428 54.0767 101.145C54.5603 101.428 55.1155 101.601 55.7154 101.601H75.38C75.9799 101.601 76.5352 101.428 77.0187 101.145C77.5023 101.428 78.0575 101.601 78.6574 101.601H98.322C100.13 101.601 101.599 100.132 101.599 98.3238V95.0464C101.599 94.4465 101.426 93.8912 101.144 93.4077C101.426 92.9241 101.599 92.3689 101.599 91.769V88.4915C101.599 87.8917 101.426 87.3364 101.144 86.8528C101.426 86.3693 101.599 85.814 101.599 85.2141V81.9367C101.599 81.3368 101.426 80.7815 101.144 80.298C101.426 79.8144 101.599 79.2591 101.599 78.6592V75.3818C101.599 74.7819 101.426 74.2267 101.144 73.7431C101.426 73.2595 101.599 72.7043 101.599 72.1044V68.827C101.599 68.2271 101.426 67.6718 101.144 67.1882C101.426 66.7047 101.599 66.1494 101.599 65.5495V62.2721C101.599 61.6722 101.426 61.1169 101.144 60.6334C101.426 60.1498 101.599 59.5945 101.599 58.9947V55.7172C101.599 55.1173 101.426 54.5621 101.144 54.0785C101.426 53.595 101.599 53.0397 101.599 52.4398V49.1624C101.599 48.5625 101.426 48.0072 101.144 47.5237C101.426 47.0401 101.599 46.4848 101.599 45.8849V42.6075C101.599 40.7998 100.13 39.3301 98.322 39.3301ZM78.6574 42.6075H98.322L98.3235 45.8849H78.657L78.6574 42.6075ZM98.3239 52.4398H78.6574V49.1624H98.322L98.3239 52.4398ZM98.3239 58.9947H78.6574V55.7172H98.322L98.3239 58.9947ZM98.3239 65.5495H78.6574V62.2721H98.322L98.3239 65.5495ZM98.3239 72.1044H78.6574V68.827H98.322L98.3239 72.1044ZM98.3239 78.6592H78.6574V75.3818H98.322L98.3239 78.6592ZM98.3239 85.2141H78.6574V81.9367H98.322L98.3239 85.2141ZM98.3239 91.769H78.6574V88.4915H98.322L98.3239 91.769ZM9.83139 88.4915H29.496V91.769H9.83139V88.4915ZM32.7734 75.3818H52.438V78.6592H32.7734V75.3818ZM55.7154 62.2721H75.38V65.5495H55.7154V62.2721ZM75.38 85.2141H55.7154V81.9367H75.38V85.2141ZM75.38 78.6592H55.7154V75.3818H75.38V78.6592ZM75.38 68.827V72.1044H55.7154V68.827H75.38ZM52.438 81.9367V85.2141H32.7734V81.9367H52.438ZM32.7734 88.4915H52.438V91.769H32.7734V88.4915ZM55.7154 88.4915H75.38V91.769H55.7154V88.4915ZM55.7154 55.7172H75.38V58.9947H55.7154V55.7172ZM32.7734 68.827H52.438V72.1044H32.7734V68.827ZM9.83139 81.9367H29.496V85.2141H9.83139V81.9367ZM9.83139 98.3238V95.0464H29.496V98.3238H9.83139ZM32.7734 98.3238V95.0464H52.438V98.3238H32.7734ZM55.7154 98.3238V95.0464H75.38V98.3238H55.7154ZM78.6574 98.3238V95.0464H98.322L98.3235 98.3238H78.6574Z" fill="#5C12A7"/>
<path d="M85.2124 0.000865166V3.2783H95.6906L88.9281 9.3642C72.4744 24.1733 54.59 37.5276 35.74 49.1485C35.9354 48.0884 36.0517 46.9998 36.0517 45.8841C36.0517 41.8787 34.7144 38.0213 32.2841 34.877C32.5892 34.2362 32.7743 33.5302 32.7743 32.7744C32.7743 32.1519 32.6463 31.56 32.4334 31.0113L36.8937 27.1882C37.615 27.603 38.4395 27.8583 39.3291 27.8583C40.6518 27.8583 41.8479 27.3272 42.7324 26.4749L47.5826 28.9C47.5585 29.099 47.5226 29.2936 47.5226 29.497C47.5226 32.2075 49.7282 34.4131 52.4388 34.4131C55.1493 34.4131 57.3549 32.2075 57.3549 29.497C57.3549 28.8298 57.2188 28.1955 56.9782 27.6153L66.4958 19.0502C67.1923 19.4306 67.9787 19.6647 68.8258 19.6647C71.5363 19.6647 73.7419 17.4591 73.7419 14.7486C73.7419 12.038 71.5363 9.83241 68.8258 9.83241C66.1153 9.83241 63.9096 12.038 63.9096 14.7486C63.9096 15.4157 64.0457 16.05 64.2864 16.6302L54.7687 25.1953C54.0723 24.8171 53.2859 24.5808 52.4388 24.5808C51.1161 24.5808 49.92 25.1119 49.0355 25.9642L44.1853 23.5391C44.2094 23.3401 44.2453 23.1455 44.2453 22.9421C44.2453 20.2316 42.0396 18.026 39.3291 18.026C36.6186 18.026 34.413 20.2316 34.413 22.9421C34.413 23.5647 34.541 24.1565 34.7539 24.7052L30.2936 28.5284C29.5722 28.1136 28.7478 27.8583 27.8582 27.8583C26.6028 27.8583 25.4688 28.3448 24.5991 29.1217C22.5075 28.2994 20.307 27.8583 18.0259 27.8583C8.08683 27.8583 0 35.9451 0 45.8841C0 53.6045 4.88843 60.187 11.7235 62.7511C8.68519 64.3225 5.62576 65.8735 2.56501 67.3511L3.99011 70.3008C8.25583 68.243 12.5363 66.0694 16.726 63.8426C17.1576 63.8755 17.5871 63.9099 18.026 63.9099C25.038 63.9099 31.1131 59.8768 34.092 54.0154C54.3559 41.8202 73.541 27.6218 91.1211 11.8002L98.3234 5.31787V16.3872H101.601V0L85.2124 0.000865166ZM68.8252 13.1106C69.728 13.1106 70.464 13.8465 70.464 14.7493C70.464 15.6521 69.728 16.388 68.8252 16.388C67.9225 16.388 67.1865 15.6521 67.1865 14.7493C67.1865 13.8465 67.9225 13.1106 68.8252 13.1106ZM52.4381 27.859C53.3408 27.859 54.0768 28.595 54.0768 29.4977C54.0768 30.4005 53.3408 31.1365 52.4381 31.1365C51.5353 31.1365 50.7994 30.4005 50.7994 29.4977C50.7994 28.595 51.5353 27.859 52.4381 27.859ZM39.3284 21.3042C40.2311 21.3042 40.9671 22.0401 40.9671 22.9429C40.9671 23.8456 40.2311 24.5816 39.3284 24.5816C38.4256 24.5816 37.6896 23.8456 37.6896 22.9429C37.6896 22.0401 38.4256 21.3042 39.3284 21.3042ZM27.8574 31.1365C28.7601 31.1365 29.4961 31.8724 29.4961 32.7752C29.4961 33.6779 28.7601 34.4139 27.8574 34.4139C26.9546 34.4139 26.2186 33.6779 26.2186 32.7752C26.2186 31.8724 26.9546 31.1365 27.8574 31.1365ZM18.0251 60.6333C9.89366 60.6333 3.27662 54.0163 3.27662 45.8849C3.27662 37.7535 9.89366 31.1365 18.0251 31.1365C19.7523 31.1365 21.4254 31.4364 23.018 32.0114C22.9792 32.2623 22.9412 32.5133 22.9412 32.7752C22.9412 35.4857 25.1468 37.6913 27.8573 37.6913C28.6079 37.6913 29.3109 37.5092 29.9466 37.2078C31.7756 39.7185 32.7735 42.7487 32.7735 45.8849C32.7735 54.0163 26.1564 60.6333 18.025 60.6333H18.0251Z" fill="#5C12A7"/>
<path d="M26.85 45.789V44.613H24.561V39.3H22.461V44.613H17.904L13.641 39.3H11.919V44.613H9.63V45.789H11.919V47.511H9.63V48.687H11.919V54H13.998V48.687H18.555L22.839 54H24.561V48.687H26.85V47.511H24.561V45.789H26.85ZM13.998 43.017L15.279 44.613H13.998V43.017ZM13.998 47.511V45.789H16.224L17.61 47.511H13.998ZM22.461 47.511H20.235L18.849 45.789H22.461V47.511ZM22.461 50.283L21.18 48.687H22.461V50.283Z" fill="#5C12A7"/>
</svg>
