<svg width="103" height="103" viewBox="0 0 103 103" fill="none" xmlns="http://www.w3.org/2000/svg">
<path d="M42.9163 17.167H60.0828V20.6003H42.9163V17.167Z" fill="#5C12A7"/>
<path d="M42.9163 24.0337H60.0828V27.467H42.9163V24.0337Z" fill="#5C12A7"/>
<path d="M94.4158 89.2667V75.5335C94.4158 74.7709 93.9131 74.1004 93.1796 73.8858L53.2158 62.2294V41.1998H65.2324C66.1819 41.1998 66.9491 40.4304 66.9491 39.4832V12.0166C66.9491 11.5614 66.769 11.1238 66.4464 10.8027L56.1464 0.502736C55.8253 0.180102 55.3892 0 54.9325 0H37.7659C36.8164 0 36.0492 0.769436 36.0492 1.71666V39.4832C36.0492 40.4304 36.8164 41.1998 37.7659 41.1998H49.7825V62.2294L9.81867 73.8858C9.08525 74.1004 8.58252 74.7709 8.58252 75.5335V89.2667C8.58252 90.0293 9.08525 90.6999 9.81867 90.9144L51.0185 102.931C51.1764 102.978 51.3358 103 51.499 103C51.6622 103 51.8216 102.978 51.9795 102.931L93.1793 90.9144C93.9127 90.6998 94.4155 90.0293 94.4155 89.2667H94.4158ZM56.6493 5.86065L61.0889 10.3002H56.6493V5.86065ZM39.4827 3.43359H53.216V12.0169C53.216 12.9641 53.9831 13.7335 54.9326 13.7335H63.5159V37.7668H39.4827V3.43359ZM49.7827 65.8042V74.8221L45.8467 70.8861L43.4196 73.3132L50.2863 80.1798C50.6204 80.514 51.0603 80.6826 51.4994 80.6826C51.9386 80.6826 52.3785 80.514 52.7134 80.1798L59.58 73.3132L57.1529 70.8861L53.2162 74.8221V65.8042L86.5684 75.5325L51.4995 85.7604L16.4306 75.5325L49.7827 65.8042ZM12.0162 77.8208L49.7827 88.8365V98.9938L12.0162 87.9782V77.8208ZM53.216 98.9936V88.8363L90.9825 77.8206V87.978L53.216 98.9936Z" fill="#5C12A7"/>
<path d="M42.9163 10.3004H49.7829V13.7337H42.9163V10.3004Z" fill="#5C12A7"/>
<path d="M1.71644 41.2005H13.7331C13.7331 45.9336 17.5833 49.7838 22.3164 49.7838H27.4663C30.3058 49.7838 32.6163 52.0944 32.6163 54.9338V57.6567L28.6804 53.7208L26.2533 56.1478L33.1199 63.0145C33.4541 63.3486 33.894 63.5172 34.3331 63.5172C34.7722 63.5172 35.2121 63.3486 35.547 63.0145L42.4136 56.1478L39.9866 53.7208L36.0498 57.6567V54.9338C36.0498 50.2007 32.1996 46.3505 27.4665 46.3505H22.3166C19.4771 46.3505 17.1666 44.04 17.1666 41.2005H29.1832C30.1327 41.2005 30.8999 40.4311 30.8999 39.4839V12.0173C30.8999 11.5621 30.7198 11.1245 30.3971 10.8034L20.0972 0.503468C19.7761 0.180834 19.34 0.000732422 18.8832 0.000732422H1.71666C0.767141 0.000732422 0 0.770168 0 1.71739V39.4839C0 40.4311 0.767141 41.2005 1.71666 41.2005H1.71644ZM20.5997 5.86092L25.0393 10.3005H20.5997V5.86092ZM3.4331 3.43385H17.1664V12.0171C17.1664 12.9644 17.9335 13.7338 18.883 13.7338H27.4663V37.767H3.4331V3.43385Z" fill="#5C12A7"/>
<path d="M6.86621 17.167H24.0328V20.6003H6.86621V17.167Z" fill="#5C12A7"/>
<path d="M6.86621 24.0337H24.0328V27.467H6.86621V24.0337Z" fill="#5C12A7"/>
<path d="M6.86621 30.9004H24.0328V34.3337H6.86621V30.9004Z" fill="#5C12A7"/>
<path d="M6.86621 10.3004H13.7328V13.7337H6.86621V10.3004Z" fill="#5C12A7"/>
<path d="M102.999 39.4836V12.0171C102.999 11.5619 102.819 11.1243 102.497 10.8032L92.1966 0.503224C91.8755 0.18059 91.4394 0.000488281 90.9827 0.000488281H73.8161C72.8666 0.000488281 72.0994 0.769924 72.0994 1.71715V39.4836C72.0994 40.4309 72.8666 41.2003 73.8161 41.2003H85.8327C85.8327 44.0398 83.5222 46.3503 80.6827 46.3503H75.5327C70.7997 46.3503 66.9494 50.2005 66.9494 54.9336V57.6565L63.0135 53.7205L60.5864 56.1476L67.4531 63.0142C67.7872 63.3484 68.2271 63.517 68.6662 63.517C69.1054 63.517 69.5453 63.3484 69.8801 63.0142L76.7468 56.1476L74.3197 53.7205L70.383 57.6565V54.9336C70.383 52.0941 72.6935 49.7836 75.533 49.7836H80.6829C85.416 49.7836 89.2662 45.9334 89.2662 41.2003H101.283C102.232 41.2003 103 40.4309 103 39.4836H102.999ZM92.6993 5.86067L97.1389 10.3002H92.6993V5.86067ZM75.5327 37.767V3.43381H89.266V12.0171C89.266 12.9643 90.0332 13.7338 90.9827 13.7338H99.566V37.767H75.5327Z" fill="#5C12A7"/>
<path d="M78.9661 17.167H96.1327V20.6003H78.9661V17.167Z" fill="#5C12A7"/>
<path d="M78.9661 24.0337H96.1327V27.467H78.9661V24.0337Z" fill="#5C12A7"/>
<path d="M78.9661 30.9004H96.1327V34.3337H78.9661V30.9004Z" fill="#5C12A7"/>
<path d="M78.9661 10.3004H85.8327V13.7337H78.9661V10.3004Z" fill="#5C12A7"/>
<path d="M42.9163 30.9004H46.3496V34.3337H42.9163V30.9004Z" fill="#5C12A7"/>
<path d="M49.7827 30.9004H53.216V34.3337H49.7827V30.9004Z" fill="#5C12A7"/>
<path d="M56.6497 30.9004H60.083V34.3337H56.6497V30.9004Z" fill="#5C12A7"/>
</svg>
