<svg width="112" height="95" viewBox="0 0 112 95" fill="none" xmlns="http://www.w3.org/2000/svg">
<path d="M104.696 24.3476H101.699V14.234C101.699 10.1136 98.3279 6.9297 94.3948 6.9297H43.4522C42.3284 6.9297 41.392 6.55512 40.6428 5.80596L37.0843 2.24747C35.586 0.749156 33.7131 0 31.6529 0H7.49157C3.37121 0 0 3.3712 0 7.49157V82.4072C0 85.5911 1.31102 88.7751 3.55849 91.0225C5.80596 93.27 8.98988 94.581 12.1738 94.581L104.508 94.7683C108.629 94.7683 112 91.3971 112 87.2768V31.6508C112 27.5304 108.816 24.3465 104.696 24.3465V24.3476ZM3.74792 82.4072V7.49157C3.74792 5.43139 5.43353 3.74578 7.49371 3.74578H31.6551C32.7788 3.74578 33.7153 4.12036 34.4644 4.86952L38.0229 8.42801C39.5212 9.92632 41.3941 10.6755 43.4543 10.6755H94.397C96.2699 10.6755 97.9555 12.3611 97.9555 14.234V24.3476H22.6652C21.5415 24.3476 20.7923 25.0967 20.7923 26.2205V82.2189V82.4062V82.5935C20.7923 87.2757 17.0465 91.0215 12.177 91.0215C9.92954 91.0215 7.68207 90.085 6.18375 88.5867C4.68544 86.9011 3.74899 84.6536 3.74899 82.4062L3.74792 82.4072ZM108.255 87.2768C108.255 89.3369 106.57 91.0225 104.51 91.0225L21.1647 90.8352C23.2249 88.5878 24.536 85.7784 24.536 82.4072V82.2199V82.0327V28.0934H104.696C106.569 28.0934 108.254 29.779 108.254 31.6519L108.255 87.2768Z" fill="#5C12A7"/>
<path d="M66.3005 47.7576C58.809 47.7576 52.6284 53.9381 52.6284 61.4297C52.6284 68.9212 58.809 75.1018 66.3005 75.1018C73.7921 75.1018 79.9726 68.9212 79.9726 61.4297C79.9726 53.9381 73.7921 47.7576 66.3005 47.7576ZM66.3005 71.356C60.8691 71.356 56.3742 66.8611 56.3742 61.4297C56.3742 55.9983 60.8691 51.5034 66.3005 51.5034C71.7319 51.5034 76.2269 55.9983 76.2269 61.4297C76.2269 66.8611 71.7319 71.356 66.3005 71.356Z" fill="#5C12A7"/>
<path d="M87.4656 57.3105H85.4055C84.8436 54.8758 83.9072 52.6283 82.7834 50.9427L84.2817 49.4444C85.4055 48.3207 85.4055 46.6351 84.2817 45.5113L82.0343 43.4511C80.9105 42.3274 79.2249 42.3274 78.1012 43.4511L76.6029 44.9495C74.73 43.8257 72.6698 42.8893 70.235 42.3274V40.2672C70.235 38.5816 69.1113 37.4579 67.4257 37.4579H64.4291C62.7435 37.4579 61.6197 38.5816 61.6197 40.2672V42.3274C59.185 42.8893 56.9375 43.8257 55.2519 44.9495L53.7536 43.4511C52.6299 42.3274 50.9443 42.3274 49.8205 43.4511L47.7603 45.5113C46.6366 46.6351 46.6366 48.3207 47.7603 49.4444L49.2587 50.9427C47.9476 53.0029 47.1985 55.2504 46.6366 57.3105H44.5764C42.8908 57.3105 41.7671 58.4343 41.7671 60.1199V63.1165C41.7671 64.8021 42.8908 65.9258 44.5764 65.9258H46.6366C47.0112 68.3606 47.9476 70.4208 49.2587 72.2937L47.7603 73.792C46.6366 74.9157 46.6366 76.6013 47.7603 77.7251L49.8205 79.7852C50.9443 80.909 52.6299 80.909 53.7536 79.7852L55.2519 78.2869C57.1248 79.4107 59.185 80.3471 61.6197 80.909V82.9692C61.6197 84.6548 62.7435 85.7785 64.4291 85.7785H67.4257C69.1113 85.7785 70.235 84.6548 70.235 82.9692V81.0963C72.6698 80.5344 74.9173 79.5979 76.6029 78.4742L78.1012 79.9725C79.2249 81.0963 80.9105 81.0963 82.0343 79.9725L84.0944 77.9123C85.2182 76.7886 85.2182 75.103 84.0944 73.9793L82.5961 72.481C83.7199 70.6081 84.6563 68.5479 85.2182 66.1131H87.2784C88.964 66.1131 90.0877 64.6148 90.0877 63.3038V60.3072C90.275 58.4343 89.1512 57.3105 87.4656 57.3105ZM86.5292 62.1801H84.6563C83.5326 62.1801 82.5961 62.9292 82.0343 64.0529C82.0343 64.2402 81.847 64.4275 81.847 64.4275C81.2851 67.0496 80.3487 69.1098 79.2249 70.7954L79.0376 70.9826C78.4758 71.9191 78.4758 73.4174 79.4122 74.3539L80.7232 75.6649L80.1614 76.414L78.8503 75.103C78.1012 74.3539 77.5393 74.1666 76.9775 74.3539C76.6029 74.3539 75.8537 74.5411 75.2918 75.103C73.6062 76.2267 71.5461 77.1632 69.1113 77.7251C67.8003 77.9123 66.6765 79.0361 66.6765 80.5344V82.4073H65.5528V80.5344C65.5528 79.2234 64.6164 78.2869 63.6799 77.9123C63.4926 77.9123 63.3053 77.7251 63.3053 77.7251C60.6833 77.1632 58.6231 76.2267 56.9375 75.103L56.7502 74.9157C55.8138 74.5411 54.8773 74.5411 53.9409 74.9157C53.7536 74.9157 53.5663 75.103 53.379 75.2903L52.068 76.6013L51.3188 75.8522L52.6299 74.5411C53.7536 73.4174 53.7536 71.9191 52.8172 70.9826C51.5061 69.297 50.757 67.2369 50.3824 64.8021C50.1951 63.3038 48.8841 62.3673 47.5731 62.3673H45.7002V61.2436H47.5731C48.8841 61.2436 49.8205 60.3072 50.1951 59.3707C50.1951 59.1834 50.3824 58.9961 50.3824 58.8089C50.757 56.7487 51.5061 54.6885 53.0044 52.441V52.2537C53.5663 51.3173 53.5663 49.819 52.6299 48.8825L51.1315 47.3842L51.8807 46.6351L53.1917 47.9461C54.3155 49.0698 55.8138 49.0698 56.7502 48.1334C58.4358 47.0096 60.496 46.0732 62.9308 45.5113C64.2418 45.324 65.1782 44.013 65.1782 42.702V40.8291H66.302V42.702C66.302 44.013 67.2384 44.9495 68.1749 45.324C68.3622 45.324 68.5494 45.5113 68.5494 45.5113C71.1715 46.0732 73.2317 47.0096 74.9173 48.1334L75.1046 48.3207C76.041 48.8825 77.5393 48.8825 78.4758 47.9461L79.7868 46.6351L80.5359 47.3842L79.2249 48.6952C78.4758 49.4444 78.4758 50.1935 78.4758 50.5681C78.4758 50.9427 78.6631 51.6919 79.2249 52.2537C80.3487 53.9393 81.2851 55.9995 81.847 58.4343C82.0343 59.7453 83.158 60.869 84.6563 60.869H86.5292V62.1801Z" fill="#5C12A7"/>
</svg>
