<svg width="107" height="110" viewBox="0 0 107 110" fill="none" xmlns="http://www.w3.org/2000/svg">
<path d="M96.3078 11.3072C93.6775 11.2794 92.104 11.2794 89.9125 11.2979L89.0265 11.3026C88.5051 9.43859 87.0466 8.3958 84.7169 8.38651H80.1122C78.4144 8.38651 76.7212 8.38651 75.1291 8.36797C73.2651 4.52408 69.9844 0.343614 61.7522 0.0252344C61.6641 0.0113299 61.5714 0.00205995 61.4841 0.00205995H60.741H60.5657C60.5193 0.00205995 60.4784 -0.00257494 60.4413 0.00205995C51.6746 0.098618 48.2642 4.41745 46.3539 8.35389C44.6931 8.37707 43.0269 8.37707 41.366 8.37707H36.7614C34.4261 8.3902 32.9685 9.43767 32.4472 11.3024L25.5259 11.2978C23.8466 11.3302 19.8969 11.2839 17.2483 13.9233C15.6609 15.5007 14.8529 17.7114 14.8529 20.4839V64.8356C6.52421 65.7679 0 72.7719 0 81.3455C0 89.9229 6.52896 96.9277 14.8622 97.8553L14.8807 101.131C15.3697 106.678 19.2321 109.991 25.2071 109.991C37.5913 109.995 49.9676 110 62.3508 110C73.6558 110 84.9597 110 96.2691 109.991C101.774 109.986 106.605 105.16 106.605 99.6691C106.623 73.6628 106.623 47.6585 106.609 21.6483C106.601 16.1978 101.784 11.362 96.3069 11.3073L96.3078 11.3072ZM35.8947 12.8575C35.8947 12.3825 35.9689 12.1978 35.9596 12.1839C36.006 12.1608 36.2184 12.0781 36.7715 12.0781H41.3668C43.1389 12.0781 44.9147 12.0735 46.6867 12.0503C47.5032 12.0364 48.9154 11.5845 49.4784 10.3895C51.0797 6.91501 53.5525 3.69918 60.7372 3.69918C67.9211 3.69918 70.3946 6.91501 71.9912 10.385C72.5404 11.58 73.9664 12.0365 74.7922 12.0504C76.5642 12.0736 78.3363 12.0782 80.1028 12.0782H84.6981C85.2288 12.0782 85.4458 12.157 85.4775 12.157H85.4822C85.5007 12.1987 85.5741 12.3833 85.5741 12.8584C85.588 16.8174 85.588 20.7762 85.5741 24.7352C85.5741 25.1778 85.5092 25.367 85.5185 25.3902C85.4628 25.4134 85.269 25.4775 84.8171 25.4775H36.6448C36.1744 25.4775 35.9805 25.4404 35.9712 25.4219C35.9589 25.3663 35.8948 25.177 35.8948 24.7344C35.8809 20.7754 35.8809 16.8166 35.8948 12.8576L35.8947 12.8575ZM3.69685 81.3467C3.69685 74.2131 9.47416 68.4086 16.5978 68.3485C16.6348 68.3485 16.6673 68.3717 16.7036 68.3717C16.7407 68.3717 16.7731 68.3532 16.8094 68.3485C23.9338 68.4041 29.7103 74.2085 29.7103 81.3467C29.7103 88.5176 23.8782 94.3542 16.7074 94.3542C9.53809 94.3542 3.69671 88.5213 3.69671 81.3467H3.69685ZM102.911 99.6696C102.911 103.075 99.6856 106.3 96.2706 106.305C72.582 106.319 48.9052 106.314 25.2126 106.305C21.1201 106.305 18.8869 104.455 18.5632 100.814C18.5632 100.782 18.5586 100.745 18.5539 100.704V97.8612C26.8826 96.9289 33.4068 89.9249 33.4068 81.3514C33.4068 72.7784 26.8826 65.7739 18.5539 64.8415L18.5547 20.4859C18.5547 18.7277 18.9927 17.3992 19.8602 16.5362C21.4198 14.9766 24.1103 14.9997 25.5177 14.9905L32.1987 14.9951C32.1894 18.2479 32.1894 21.5007 32.1987 24.7545C32.2172 27.5964 33.7954 29.1654 36.6512 29.1654H84.8235C87.6792 29.1654 89.2575 27.5965 89.2761 24.75C89.2853 21.4972 89.2853 18.2444 89.2761 14.9906H89.9265C92.1134 14.9859 93.6776 14.972 96.2662 14.9998C99.6806 15.0369 102.916 18.2667 102.916 21.6538C102.929 47.6581 102.929 73.6644 102.911 99.6706L102.911 99.6696Z" fill="#5C12A7"/>
<path d="M60.6772 21.8641H60.7328C64.4885 21.8641 67.4463 18.9249 67.4603 15.1783C67.465 13.3784 66.7636 11.6805 65.4804 10.3937C64.2113 9.11991 62.5227 8.41382 60.7142 8.41382C57.0968 8.42772 54.0927 11.3995 54.0239 15.0353C53.9868 16.8444 54.6651 18.547 55.9203 19.8431C57.1756 21.1346 58.8688 21.8498 60.6772 21.8639L60.6772 21.8641ZM60.7467 12.1047C61.54 12.1047 62.2924 12.4229 62.8694 12.9999C63.4511 13.5862 63.7693 14.3517 63.7647 15.1635C63.76 16.8521 62.4314 18.1723 60.7335 18.1723V20.0177L60.7057 18.1723C59.8892 18.1677 59.1276 17.8448 58.5645 17.2631C58.0013 16.6861 57.697 15.9159 57.7155 15.1033C57.7426 13.4564 59.0998 12.1139 60.7467 12.1046L60.7467 12.1047Z" fill="#5C12A7"/>
<path d="M25.9557 76.1311C25.2682 75.3694 24.101 75.3099 23.3485 75.9928L13.0222 85.281C11.6008 83.6426 10.0227 82.4569 9.93072 82.3928C9.11422 81.788 7.95552 81.9633 7.35145 82.776C6.74275 83.5925 6.90882 84.7512 7.72532 85.3598C7.74849 85.3783 10.0513 87.104 11.1581 88.9634C11.4439 89.4385 11.9244 89.7567 12.4682 89.8402C12.5601 89.8541 12.6528 89.8587 12.7447 89.8587C13.1966 89.8587 13.6354 89.6926 13.9814 89.3836L25.8173 78.7391C26.5743 78.0554 26.6338 76.8882 25.9555 76.1311L25.9557 76.1311Z" fill="#5C12A7"/>
<path d="M82.7517 42.0782H38.7224C37.7027 42.0782 36.877 42.904 36.877 43.9237C36.877 44.9433 37.7074 45.7691 38.7224 45.7691H82.7517C83.7714 45.7691 84.5971 44.9433 84.5971 43.9237C84.5971 42.904 83.7714 42.0782 82.7517 42.0782Z" fill="#5C12A7"/>
<path d="M82.7517 51.3074H38.7224C37.7027 51.3074 36.877 52.1331 36.877 53.1528C36.877 54.1724 37.7074 54.9982 38.7224 54.9982H82.7517C83.7714 54.9982 84.5971 54.1724 84.5971 53.1528C84.5971 52.1339 83.7714 51.3074 82.7517 51.3074Z" fill="#5C12A7"/>
</svg>
