<svg width="91" height="118" viewBox="0 0 91 118" fill="none" xmlns="http://www.w3.org/2000/svg">
<path d="M0 7.36V110.4C0 114.459 3.30122 117.76 7.36 117.76H83.4861C87.5448 117.76 90.8461 114.459 90.8461 110.4V7.36C90.8461 3.30122 87.5448 0 83.4861 0H7.36C3.30201 0 0 3.30201 0 7.36ZM4.90702 7.36C4.90702 6.00876 6.00876 4.90702 7.36 4.90702H83.4861C84.8373 4.90702 85.939 6.00876 85.939 7.36V110.4C85.939 111.751 84.8373 112.853 83.4861 112.853L7.36 112.854C6.00876 112.854 4.90702 111.752 4.90702 110.401V7.36Z" fill="#5C12A7"/>
<path d="M29.1669 18.5495H61.677C63.0334 18.5495 64.13 17.4519 64.13 16.0965C64.13 14.7401 63.0324 13.6436 61.677 13.6436H29.1669C27.8105 13.6436 26.7139 14.7412 26.7139 16.0965C26.7139 17.4519 27.8115 18.5495 29.1669 18.5495Z" fill="#5C12A7"/>
<path d="M15.5873 30.9407H75.2769C76.6333 30.9407 77.7298 29.843 77.7298 28.4877C77.7298 27.1313 76.6322 26.0347 75.2769 26.0347L15.5873 26.0337C14.2309 26.0337 13.1343 27.1313 13.1343 28.4867C13.1343 29.8431 14.2309 30.9407 15.5873 30.9407V30.9407Z" fill="#5C12A7"/>
<path d="M15.5873 42.5222H75.2769C76.6333 42.5222 77.7298 41.4245 77.7298 40.0692C77.7298 38.7128 76.6322 37.6162 75.2769 37.6162H15.5873C14.2309 37.6162 13.1343 38.7139 13.1343 40.0692C13.1343 41.4256 14.2309 42.5222 15.5873 42.5222Z" fill="#5C12A7"/>
<path d="M15.5873 54.0695H75.2769C76.6333 54.0695 77.7298 52.9718 77.7298 51.6165C77.7298 50.2601 76.6322 49.1635 75.2769 49.1635L15.5873 49.1625C14.2309 49.1625 13.1343 50.2601 13.1343 51.6155C13.1343 52.9719 14.2309 54.0695 15.5873 54.0695V54.0695Z" fill="#5C12A7"/>
<path d="M58.1599 64.9176C47.3551 64.9176 38.5615 73.7099 38.5615 84.516C38.5615 95.3207 47.3538 104.114 58.1599 104.114C68.7183 104.114 77.7293 95.4616 77.7293 84.516C77.7293 73.6381 68.8293 64.9176 58.1599 64.9176ZM70.4895 76.6292L60.6139 80.8134V70.0733C64.7581 70.7797 68.3046 73.2113 70.4895 76.6292ZM43.4678 84.516C43.4678 77.2535 48.7733 71.2477 55.7061 70.0733V84.516C55.7061 84.5416 55.7205 84.5663 55.7215 84.5919C55.7318 84.8907 55.7852 85.1834 55.8992 85.4544C55.9012 85.4606 55.9002 85.4678 55.9022 85.4739C55.9104 85.4935 55.932 85.5006 55.9402 85.5191C56.0552 85.7727 56.199 86.0161 56.3951 86.2215L66.437 96.6227C64.0785 98.2471 61.2301 99.2061 58.1591 99.2061C50.0568 99.2071 43.4678 92.6184 43.4678 84.5158L43.4678 84.516ZM69.9375 93.1832L62.4061 85.3805L72.3968 81.1472C72.6535 82.2335 72.8229 83.3527 72.8229 84.516C72.8229 87.7678 71.7293 90.7465 69.9375 93.1832H69.9375Z" fill="#5C12A7"/>
<path d="M20.7526 104.115H25.1607C29.3725 104.115 32.7991 100.688 32.7991 96.4764V92.0683C32.7991 87.8565 29.3728 84.4299 25.1607 84.4299H20.7526C16.5409 84.4299 13.1143 87.8563 13.1143 92.0683V96.4764C13.1143 100.688 16.5406 104.115 20.7526 104.115ZM18.0213 92.0686C18.0213 90.5643 19.2483 89.3372 20.7526 89.3372H25.1607C26.665 89.3372 27.8921 90.5642 27.8921 92.0686V96.4767C27.8921 97.9809 26.6651 99.208 25.1607 99.208H20.7526C19.2484 99.208 18.0213 97.981 18.0213 96.4767V92.0686Z" fill="#5C12A7"/>
<path d="M20.7526 79.5666H25.1607C29.3725 79.5666 32.7991 76.1402 32.7991 71.9282V67.5201C32.7991 63.3083 29.3728 59.8817 25.1607 59.8817L20.7526 59.8827C16.5409 59.8827 13.1143 63.3091 13.1143 67.5211V71.9292C13.1143 76.141 16.5406 79.5665 20.7526 79.5665V79.5666ZM18.0213 67.5203C18.0213 66.0161 19.2483 64.789 20.7526 64.789H25.1607C26.665 64.789 27.8921 66.016 27.8921 67.5203V71.9285C27.8921 73.4327 26.6651 74.6598 25.1607 74.6598L20.7526 74.6608C19.2484 74.6608 18.0213 73.4338 18.0213 71.9295V67.5203Z" fill="#5C12A7"/>
</svg>
