<svg width="108" height="124" viewBox="0 0 108 124" fill="none" xmlns="http://www.w3.org/2000/svg">
<path d="M105.687 0H18.8877C17.7464 0 16.8211 0.925387 16.8211 2.06665V18.8684C10.623 19.851 5.27 23.7417 2.42086 29.3327C-0.428047 34.9248 -0.428047 41.5416 2.42086 47.1336C5.26977 52.7246 10.623 56.6154 16.8211 57.5979V97.1335C16.8211 97.1769 16.8441 97.2166 16.846 97.2618C16.857 97.4445 16.8939 97.6244 16.953 97.7969C16.9724 97.8624 16.9954 97.9279 17.0213 97.9916C17.1218 98.2167 17.2621 98.4215 17.4346 98.5968L42.2344 123.397C42.62 123.781 43.1423 123.998 43.6875 124H105.687C106.235 124 106.761 123.782 107.148 123.395C107.536 123.007 107.754 122.481 107.754 121.933V2.06759C107.754 1.51956 107.536 0.993667 107.148 0.606176C106.761 0.218685 106.235 0.000942434 105.687 0.000942434L105.687 0ZM4.42114 38.2342C4.42114 34.1231 6.05418 30.1807 8.9614 27.2746C11.8677 24.3674 15.8099 22.7343 19.921 22.7343C24.0321 22.7343 27.9746 24.3674 30.8807 27.2746C33.7879 30.1809 35.4209 34.1231 35.4209 38.2342C35.4209 42.3453 33.7879 46.2878 30.8807 49.1939C27.9743 52.1011 24.0321 53.7341 19.921 53.7341C15.8118 53.7295 11.8712 52.0956 8.96589 49.1894C6.05958 46.284 4.42563 42.3437 4.42114 38.2342ZM23.8762 99.1992H41.6209V116.944L23.8762 99.1992ZM103.621 119.866H45.7544V97.1326C45.7544 96.5846 45.5367 96.0587 45.1492 95.6712C44.7617 95.2837 44.2358 95.0659 43.6878 95.0659H20.9546V57.8143C22.5083 57.7386 24.0482 57.4775 25.5409 57.0374C25.9183 57.5522 26.5161 57.8586 27.1545 57.8659H97.4207C98.5619 57.8659 99.4873 56.9405 99.4873 55.7993C99.4873 54.658 98.5619 53.7326 97.4207 53.7326H31.9256C33.4433 52.5554 34.782 51.1631 35.8973 49.5993H97.4197C98.561 49.5993 99.4864 48.6739 99.4864 47.5327C99.4864 46.3914 98.561 45.466 97.4197 45.466H38.1553C38.6821 44.1338 39.0603 42.748 39.2836 41.3327H97.4191C98.5604 41.3327 99.4857 40.4073 99.4857 39.2661C99.4857 38.1248 98.5604 37.1994 97.4191 37.1994H39.5009C39.2407 32.3649 37.2027 27.797 33.7788 24.3732C30.355 20.9494 25.7871 18.9113 20.9525 18.651V4.13276H103.619L103.621 119.866Z" fill="#5C12A7"/>
<path d="M27.1545 12.3999H51.9544C53.0956 12.3999 54.021 11.4745 54.021 10.3333C54.021 9.19199 53.0956 8.2666 51.9544 8.2666H27.1545C26.0133 8.2666 25.0879 9.19199 25.0879 10.3333C25.0879 11.4745 26.0133 12.3999 27.1545 12.3999Z" fill="#5C12A7"/>
<path d="M85.0208 12.3999H97.4207C98.5619 12.3999 99.4873 11.4745 99.4873 10.3333C99.4873 9.19199 98.5619 8.2666 97.4207 8.2666H85.0208C83.8795 8.2666 82.9541 9.19199 82.9541 10.3333C82.9541 11.4745 83.8795 12.3999 85.0208 12.3999Z" fill="#5C12A7"/>
<path d="M76.7542 20.6665H97.4207C98.5619 20.6665 99.4873 19.7411 99.4873 18.5999C99.4873 17.4586 98.5619 16.5332 97.4207 16.5332H76.7542C75.6129 16.5332 74.6875 17.4586 74.6875 18.5999C74.6875 19.7411 75.6129 20.6665 76.7542 20.6665Z" fill="#5C12A7"/>
<path d="M62.2874 33.0664H97.4204C98.5617 33.0664 99.4871 32.141 99.4871 30.9998C99.4871 29.8585 98.5617 28.9331 97.4204 28.9331H62.2874C61.1461 28.9331 60.2207 29.8585 60.2207 30.9998C60.2207 32.141 61.1461 33.0664 62.2874 33.0664Z" fill="#5C12A7"/>
<path d="M68.4876 61.9995H27.1545C26.0133 61.9995 25.0879 62.9249 25.0879 64.0662V88.866C25.0879 89.414 25.3056 89.9399 25.6931 90.3274C26.0806 90.7149 26.6065 90.9326 27.1545 90.9326H68.4876C69.0356 90.9326 69.5615 90.7149 69.949 90.3274C70.3365 89.9399 70.5542 89.414 70.5542 88.866V64.0662C70.5542 63.5181 70.3365 62.9922 69.949 62.6047C69.5615 62.2173 69.0356 61.9995 68.4876 61.9995ZM66.4209 66.1328V74.3994H49.8877V66.1328H66.4209ZM37.4878 74.3994V66.1328H45.7544V74.3994H37.4878ZM37.4878 78.5327H45.7544V86.7993H37.4878V78.5327ZM29.2212 66.1328H33.3545V74.3994H29.2212V66.1328ZM29.2212 86.7993V78.5327H33.3545V86.7993H29.2212ZM66.4209 86.7993H49.8877V78.5327H66.4209V86.7993Z" fill="#5C12A7"/>
<path d="M28.6159 34.5284C29.3992 33.7175 29.3872 32.4286 28.5901 31.6313C27.793 30.8341 26.5041 30.8222 25.693 31.6055L18.8879 38.4115L16.2162 35.7388C15.4052 34.9555 14.1163 34.9675 13.3191 35.7646C12.5218 36.5618 12.5099 37.8507 13.2932 38.6617L17.4265 42.795C18.2338 43.6014 19.5421 43.6014 20.3494 42.795L28.6159 34.5284Z" fill="#5C12A7"/>
<path d="M98.2 98.488V96.696H94.712V88.6H91.512V96.696H84.568L78.072 88.6H75.448V96.696H71.96V98.488H75.448V101.112H71.96V102.904H75.448V111H78.616V102.904H85.56L92.088 111H94.712V102.904H98.2V101.112H94.712V98.488H98.2ZM78.616 94.264L80.568 96.696H78.616V94.264ZM78.616 101.112V98.488H82.008L84.12 101.112H78.616ZM91.512 101.112H88.12L86.008 98.488H91.512V101.112ZM91.512 105.336L89.56 102.904H91.512V105.336Z" fill="#5C12A7"/>
</svg>
