<svg width="36" height="41" viewBox="0 0 36 41" fill="none" xmlns="http://www.w3.org/2000/svg">
<path d="M13.9295 38.1396H14.502C14.8283 39.769 16.2704 41.0001 17.994 41.0001C19.718 41.0001 21.1597 39.769 21.4861 38.1396H22.0586C23.0285 38.1396 23.8178 37.3503 23.8178 36.3804L23.8174 34.3024H24.1493C24.5363 34.3024 24.8503 33.9884 24.8503 33.6014V33.3615C24.8503 32.4877 24.9233 31.6342 25.0563 30.8035C25.0655 30.7703 25.0713 30.7367 25.0756 30.7018C25.4463 28.4816 26.2793 26.4367 27.5517 24.6942C29.1982 22.4385 29.9936 19.6526 29.7925 16.8495C29.3706 10.9755 24.6192 6.27406 18.7397 5.91267C15.4351 5.70955 12.2929 6.84185 9.89104 9.10049C7.52248 11.3279 6.16431 14.4694 6.16431 17.7196C6.16431 20.1432 6.89232 22.4733 8.26913 24.4584C10.1453 27.1648 11.1375 30.2428 11.1375 33.3605V33.6014C11.1375 33.9884 11.4511 34.3024 11.8384 34.3024H12.1703V36.3804C12.1703 37.3503 12.9596 38.1396 13.9295 38.1396L13.9295 38.1396ZM23.4541 32.9001H12.5332C12.5182 32.3713 12.4673 31.8451 12.4008 31.3209H23.573C23.5127 31.8409 23.4674 32.366 23.454 32.9001H23.4541ZM17.9939 39.5979C17.05 39.5979 16.2542 38.9853 15.9615 38.1396H20.0266C19.7335 38.9853 18.938 39.5979 17.9939 39.5979ZM22.4155 36.3804C22.4155 36.577 22.2554 36.7374 22.0585 36.7374H13.9295C13.7329 36.7374 13.5725 36.5773 13.5725 36.3804V34.3024H22.4152L22.4155 36.3804ZM7.56679 17.7192C7.56679 14.812 8.73333 12.1142 10.8521 10.1219C12.9689 8.13093 15.7431 7.13231 18.6544 7.31225C23.8352 7.63078 28.023 11.7739 28.3944 16.9496C28.5721 19.4221 27.8705 21.879 26.4194 23.8668C25.1238 25.6417 24.2454 27.6969 23.7975 29.9191L12.1588 29.9188C11.6838 27.7227 10.7673 25.6 9.42147 23.6592C8.20836 21.9101 7.5667 19.8561 7.5667 17.7194L7.56679 17.7192Z" fill="#F9CF40"/>
<path d="M18.3448 2.21987V0.700945C18.3448 0.313958 18.0311 0 17.6438 0C17.2565 0 16.9429 0.313958 16.9429 0.700945V2.21987C16.9429 2.60685 17.2565 2.92081 17.6438 2.92081C18.0311 2.92081 18.3448 2.60685 18.3448 2.21987Z" fill="#F9CF40"/>
<path d="M6.524 6.63278L5.44977 5.55854C5.17624 5.28469 4.73219 5.28469 4.45832 5.55854C4.18446 5.8324 4.18447 6.27612 4.45832 6.54998L5.53256 7.62455C5.66916 7.76148 5.8488 7.82994 6.02811 7.82994C6.20742 7.82994 6.38674 7.76148 6.52367 7.62455C6.79786 7.35036 6.79786 6.90665 6.52399 6.63278H6.524Z" fill="#F9CF40"/>
<path d="M0.700946 18.1112C0.313633 18.1112 0 18.4252 0 18.8122C0 19.1991 0.313633 19.5131 0.700946 19.5131H2.21987C2.60718 19.5131 2.92081 19.1991 2.92081 18.8122C2.92081 18.4252 2.60718 18.1112 2.21987 18.1112H0.700946Z" fill="#F9CF40"/>
<path d="M33.301 19.2797H34.82C35.207 19.2797 35.5209 18.9657 35.5209 18.5788C35.5209 18.1918 35.207 17.8778 34.82 17.8778H33.301C32.9141 17.8778 32.6001 18.1918 32.6001 18.5788C32.6001 18.9657 32.9141 19.2797 33.301 19.2797Z" fill="#F9CF40"/>
<path d="M30.8974 6.38482C31.1713 6.11097 31.1713 5.66725 30.8974 5.39338C30.6236 5.11952 30.1799 5.11953 29.906 5.39338L28.8321 6.46728C28.5582 6.74114 28.5582 7.18486 28.8321 7.45873C28.969 7.59565 29.1483 7.66412 29.3277 7.66412C29.507 7.66412 29.6863 7.59565 29.8232 7.45873L30.8974 6.38482Z" fill="#F9CF40"/>
<path d="M12.995 21.8695H15.8082L14.7284 27.0761C14.6642 27.3864 14.8161 27.7017 15.0991 27.8442C15.1995 27.895 15.3074 27.9195 15.4147 27.9195C15.6093 27.9195 15.801 27.8383 15.9373 27.6857L23.516 19.216C23.7005 19.0103 23.7462 18.7149 23.6334 18.4626C23.5206 18.2102 23.2702 18.0475 22.9934 18.0475H19.0153L20.5593 14.0329C20.6418 13.8174 20.6138 13.5751 20.4827 13.3844C20.352 13.194 20.1358 13.0806 19.9047 13.0806H16.0517C15.7681 13.0806 15.5125 13.2514 15.4039 13.5138L12.3471 20.9012C12.2578 21.1177 12.2819 21.3642 12.4123 21.5588C12.5421 21.7531 12.7605 21.8698 12.995 21.8698L12.995 21.8695ZM16.5202 14.4821H18.8835L17.3395 18.4968C17.2564 18.7123 17.285 18.9545 17.4158 19.1452C17.5468 19.336 17.763 19.4497 17.9941 19.4497H21.4255L16.6304 24.8086L17.3558 21.311C17.3988 21.1043 17.3463 20.8898 17.213 20.7258C17.0796 20.5625 16.8801 20.4676 16.6692 20.4676H14.0434L16.5202 14.4821Z" fill="#F9CF40"/>
</svg>
