<svg width="360" height="140" viewBox="0 0 360 140" fill="none" xmlns="http://www.w3.org/2000/svg">
<path fill-rule="evenodd" clip-rule="evenodd" d="M1.476 1.0911C0.228997 1.5111 0.332997 -0.6199 0.333997 24.4771C0.334997 51.3081 0.429998 53.0881 2.169 58.9171C2.36 59.5581 2.592 60.3801 2.684 60.7431C2.776 61.1061 2.91 61.4811 2.982 61.5771C3.054 61.6721 3.286 62.2371 3.499 62.8331C4.491 65.6171 7.076 70.6671 7.51 70.6671C7.596 70.6671 7.667 70.7631 7.667 70.8811C7.667 71.5851 12.028 76.2441 14.333 78.0021C15.733 79.0701 17.594 80.3331 17.767 80.3331C17.816 80.3331 18.184 80.5581 18.583 80.8331C18.983 81.1081 19.354 81.3331 19.408 81.3331C19.462 81.3331 20.124 81.6231 20.878 81.9761C21.633 82.3301 22.512 82.7351 22.833 82.8771C23.61 83.2201 26.745 84.1881 27.583 84.3441C27.95 84.4121 29.075 84.6431 30.083 84.8561C32.789 85.4301 39.223 85.4271 41.833 84.8501C42.796 84.6381 43.921 84.4011 44.333 84.3251C45.811 84.0531 50.149 82.4111 51.333 81.6751C51.563 81.5321 52.106 81.2301 52.542 81.0031C52.977 80.7761 53.333 80.5321 53.333 80.4621C53.333 80.3911 53.428 80.3331 53.545 80.3331C53.937 80.3331 57.033 77.8811 58.877 76.1101C59.923 75.1061 61.003 75.2791 62.525 76.6961C66.287 80.1981 72.074 83.3061 76.75 84.3361C77.117 84.4171 78.167 84.6561 79.083 84.8671C81.611 85.4481 89.425 85.4441 91.917 84.8591C92.833 84.6441 93.846 84.4111 94.167 84.3401C97.152 83.6861 102.951 80.8401 105.521 78.7691C105.761 78.5751 106.171 78.2671 106.431 78.0831C107.937 77.0211 110.542 74.4911 111.923 72.7501C112.286 72.2921 112.627 71.8791 112.681 71.8331C112.734 71.7871 113.175 71.1501 113.661 70.4171C114.146 69.6831 114.67 68.8961 114.825 68.6671C116.471 66.2321 118.811 59.6501 119.359 55.9171C120.163 50.4451 120.159 50.5791 120.275 25.8331C120.396 0.010088 120.451 1.5601 119.398 1.1601C118.67 0.883098 96.106 0.951089 95.434 1.23209C94.461 1.63909 94.5 0.610096 94.494 25.5671C94.491 38.2261 94.421 49.3381 94.337 50.2611C93.779 56.4511 88.38 60.7511 82.292 59.8551C78.161 59.2481 75.771 57.0641 74.333 52.5831C74.039 51.6671 73.645 50.4781 73.456 49.9421C73.116 48.9741 73.114 48.8231 73.193 28.4421C73.236 17.1531 73.229 6.53609 73.177 4.84909L73.083 1.78209L72.417 1.43309C71.759 1.08809 71.598 1.08309 60.417 1.08309C48.478 1.08309 48.543 1.08009 47.667 1.79309C47.621 1.83109 47.542 12.7861 47.491 26.1391C47.391 52.2381 47.434 51.0681 46.492 53.3521C43.532 60.5311 34.504 62.2381 29.147 56.6321C28.633 56.0931 28.072 55.3931 27.901 55.0761C27.73 54.7591 27.533 54.5001 27.462 54.5001C27.391 54.5001 27.333 54.3941 27.333 54.2641C27.333 54.1341 27.188 53.6891 27.011 53.2751C26.168 51.3101 26.167 51.2521 26.167 25.9011C26.167 -0.441904 26.259 1.55509 25.02 1.14609C24.243 0.889091 2.228 0.838098 1.476 1.0911ZM133.606 1.1581C130.318 1.3301 130.618 -1.13791 130.719 24.9091C130.818 50.3881 130.822 50.4701 132.17 56.9171C132.658 59.2511 134.461 64.2881 134.875 64.4721C134.944 64.5031 135 64.6351 135 64.7661C135 65.2861 137.32 69.1271 138.662 70.8291C138.985 71.2401 139.436 71.8021 139.663 72.0791C140.361 72.9321 143.545 76.0591 144.25 76.5841C144.617 76.8581 144.954 77.1221 145 77.1721C145.534 77.7521 149.886 80.5291 151.25 81.1601C152.042 81.5271 154.746 82.5241 155.186 82.6121L155.667 82.7081V94.3431C155.667 102.103 155.725 106.135 155.843 106.447C156.194 107.385 156.874 108.157 157.718 108.578L158.565 109H168.638C179.654 109 179.542 109.009 180.631 108.014C181.851 106.898 181.833 107.102 181.833 94.4251V83.2441L183.208 82.7641C184.529 82.3031 187.146 81.0231 187.667 80.5841C187.804 80.4681 188.085 80.3211 188.292 80.2581C188.498 80.1961 188.667 80.0741 188.667 79.9891C188.667 79.9031 188.749 79.8331 188.85 79.8331C189.073 79.8331 191.325 78.2681 192.917 77.0081C194.633 75.6491 197.123 73.1221 198.583 71.2581C199.349 70.2801 201.165 67.6011 201.166 67.4471C201.166 67.3721 201.392 66.9831 201.667 66.5831C201.942 66.1841 202.167 65.8141 202.167 65.7611C202.167 65.7091 202.533 64.8971 202.98 63.9581C203.874 62.0811 204.973 58.8261 205.414 56.7501C205.57 56.0171 205.766 55.1901 205.849 54.9121C206.487 52.7941 206.914 32.6201 206.793 10.3331L206.75 2.4171L206.354 1.8891C206.136 1.5991 205.799 1.3081 205.604 1.2441C204.878 1.0031 182.643 0.962091 181.852 1.20009C180.42 1.63109 180.537 -0.605907 180.536 26.2131L180.535 49.9171L180.174 51.2501C178.596 57.0821 173.471 60.4651 167.208 59.8081C165.707 59.6511 165.396 59.5641 163.839 58.8661C161.13 57.6511 158.599 54.7081 157.697 51.7241C156.826 48.8421 156.833 49.0671 156.833 24.6941C156.833 -1.6119 157.104 1.41109 154.723 1.16109C153.122 0.99209 136.817 0.990099 133.606 1.1581ZM219.478 1.18709C218.624 1.50009 218.653 -0.011898 218.703 42.6671C218.756 87.4211 218.63 83.4441 220.002 83.7501C220.481 83.8571 224.752 83.8871 231.871 83.8331L242.991 83.7501L243.371 83.3701L243.75 82.9911L243.846 66.2871C243.932 51.3751 243.972 49.4581 244.224 48.4171C244.379 47.7751 244.612 46.6121 244.741 45.8331C245.163 43.2811 245.905 40.1221 246.171 39.7501C246.236 39.6581 246.386 39.2871 246.503 38.9241C247.406 36.1231 250.371 32.3871 253.083 30.6321C256.276 28.5661 260.598 27.2091 265.167 26.8391C270.086 26.4401 271.175 26.2911 271.596 25.9601L272 25.6421L271.994 14.1131L271.989 2.58309L271.528 1.9171L271.068 1.25009L267.715 1.2051C262.937 1.1411 260.893 1.35609 257.241 2.31009C255.135 2.86109 250.583 5.35009 249.02 6.80609C248.888 6.92909 248.511 7.20209 248.182 7.41309C247.853 7.62509 246.571 8.59009 245.333 9.55809L243.083 11.3181L243.039 6.15909L242.995 1.00009L231.456 1.0131C224.49 1.0211 219.743 1.09009 219.478 1.18709ZM314 1.25809C312.671 1.37709 310.871 1.63609 310 1.83409C309.129 2.03109 308.154 2.2521 307.833 2.3261C307.022 2.5111 303.695 3.6221 303.058 3.9211C302.769 4.0561 302.486 4.1671 302.429 4.1671C302.338 4.1671 300.228 5.1971 298.25 6.2071C295.643 7.5391 292.09 10.2401 289.319 12.9971C287.35 14.9551 286.767 15.6081 285.516 17.2501C285.236 17.6171 284.907 18.0291 284.783 18.1671C284.66 18.3041 284.381 18.7171 284.163 19.0831C283.946 19.4501 283.72 19.7871 283.661 19.8331C283.482 19.9741 282.167 22.2971 282.167 22.4741C282.167 22.5641 282.101 22.6641 282.022 22.6941C281.498 22.8951 278.7 29.9361 278.167 32.3941C278.084 32.7731 277.863 33.7961 277.676 34.6671C276.768 38.8721 276.766 46.2971 277.672 50.2501C278.622 54.3931 278.771 54.8931 279.886 57.6671C281.207 60.9531 282.206 62.7581 285 66.9021C285.882 68.2101 287.094 69.5921 289.25 71.7511C298.243 80.7531 310.727 84.9671 323.878 83.4381C332.764 82.4051 341.161 78.2941 347.694 71.7781C349.218 70.2571 352.321 66.4331 352.34 66.0511C352.344 65.9771 352.569 65.6571 352.84 65.3401C353.111 65.0221 353.333 64.6981 353.333 64.6201C353.333 64.5411 353.545 64.1631 353.804 63.7801C354.531 62.7051 357.169 57.2081 357.39 56.3061C357.546 55.6701 356.863 55.6351 345.5 55.6971L335.917 55.7501L335 56.1591C333.695 56.7411 333.289 57.0041 332.332 57.8861C331.866 58.3151 331.419 58.6671 331.339 58.6671C331.26 58.6671 331.169 58.7301 331.139 58.8071C330.79 59.6871 325.814 62.0621 322.917 62.7311C317.146 64.0641 309.143 62.2851 305.78 58.9231C305.639 58.7821 305.467 58.6671 305.396 58.6671C305.185 58.6671 302.503 55.8161 301.952 55.0051C301.67 54.5901 301.393 54.2131 301.336 54.1671C301.28 54.1211 301.016 53.7081 300.751 53.2501C294.335 42.1891 298.631 28.7301 310.198 23.6531C315.078 21.5111 321.45 21.3501 325.917 23.2551C329.844 24.9311 332.107 26.6361 334.643 29.8331L335.635 31.0831L322.019 31.1671L308.403 31.2501L307.886 31.6671C306.832 32.5161 306.833 32.5061 306.833 39.7351C306.833 46.9221 306.839 46.9721 307.831 47.9171L308.355 48.4171L333.74 48.4601L359.125 48.5041L359.354 47.1271C359.871 44.0211 359.575 36.5951 358.814 33.5831C358.721 33.2171 358.548 32.5041 358.428 32.0001C358.15 30.8271 357.153 27.8301 356.681 26.7501C355.928 25.0251 354.262 21.7241 353.807 21.0531C353.546 20.6701 353.333 20.3021 353.333 20.2361C353.333 20.1691 353.127 19.8451 352.876 19.5161C352.624 19.1861 352.084 18.4291 351.677 17.8331C349.357 14.4441 345.612 10.8521 341.296 7.8761C340.862 7.5781 340.462 7.33309 340.405 7.33309C340.348 7.33309 340.066 7.16509 339.779 6.95809C338.904 6.33109 335.746 4.73409 334.417 4.24709C333.958 4.08009 333.508 3.8911 333.417 3.8281C333.166 3.6551 329.084 2.4141 327.75 2.1041C323.221 1.0541 319.1 0.80109 314 1.25809Z" fill="#FCFCFC"/>
<path fill-rule="evenodd" clip-rule="evenodd" d="M158.961 112.91C155.53 113.661 154.972 115.193 154.868 124.144C154.781 131.588 154.658 130.993 156.292 130.997L157.333 131V134.423C157.333 138.171 157.392 138.43 158.35 138.925C159.303 139.418 162.634 139.213 163.534 138.606C163.552 138.594 163.608 136.896 163.659 134.833L163.75 131.083H168.667H173.583L173.667 134.785C173.771 139.433 173.625 139.262 177.397 139.142C180.165 139.055 180 139.334 180 134.724V131H181.133C182.776 131 182.667 131.462 182.667 124.497C182.667 115.294 182.059 113.732 178.167 112.926C176.519 112.585 160.507 112.572 158.961 112.91Z" fill="#FCCC43"/>
</svg>
