<svg width="360" height="140" viewBox="0 0 360 140" fill="none" xmlns="http://www.w3.org/2000/svg">
<path fill-rule="evenodd" clip-rule="evenodd" d="M161.875 112.782C162.035 112.823 162.298 112.823 162.458 112.782C162.619 112.74 162.487 112.705 162.167 112.705C161.846 112.705 161.715 112.74 161.875 112.782ZM179.064 113.291C179.237 113.493 179.436 113.623 179.508 113.578C179.58 113.534 179.676 113.592 179.723 113.707C179.775 113.838 179.812 113.846 179.82 113.729C179.827 113.625 179.721 113.447 179.583 113.333C179.446 113.219 179.333 113.182 179.333 113.25C179.333 113.318 179.202 113.273 179.042 113.148C178.799 112.96 178.803 112.984 179.064 113.291ZM157.574 113.426C157.255 113.681 157.255 113.683 157.583 113.532C157.767 113.447 158.029 113.337 158.167 113.286C158.383 113.206 158.381 113.191 158.157 113.18C158.014 113.173 157.751 113.283 157.574 113.426ZM182.116 116.625C182.078 116.694 182.152 116.975 182.281 117.25C182.473 117.658 182.497 117.673 182.413 117.333C182.356 117.104 182.302 116.823 182.293 116.708C182.276 116.471 182.218 116.444 182.116 116.625ZM154.905 120C154.905 120.183 154.964 120.333 155.036 120.333C155.108 120.333 155.167 120.183 155.167 120C155.167 119.817 155.108 119.667 155.036 119.667C154.964 119.667 154.905 119.817 154.905 120ZM154.881 122.417C154.882 122.875 154.915 123.043 154.953 122.789C154.991 122.536 154.99 122.161 154.951 121.956C154.911 121.751 154.88 121.958 154.881 122.417ZM154.899 128.083C154.899 129.367 154.926 129.87 154.957 129.201C154.989 128.532 154.989 127.482 154.957 126.868C154.925 126.253 154.899 126.8 154.899 128.083ZM157.333 132.333C157.333 133.111 157.403 133.667 157.5 133.667C157.597 133.667 157.667 133.111 157.667 132.333C157.667 131.556 157.597 131 157.5 131C157.403 131 157.333 131.556 157.333 132.333ZM163.539 132C163.539 132.321 163.573 132.452 163.615 132.292C163.657 132.131 163.657 131.869 163.615 131.708C163.573 131.548 163.539 131.679 163.539 132ZM174 138.619C174.137 138.67 174.337 138.78 174.443 138.864C174.565 138.96 174.683 138.942 174.761 138.816C174.837 138.693 174.815 138.659 174.704 138.727C174.604 138.788 174.476 138.763 174.418 138.669C174.361 138.576 174.187 138.506 174.032 138.513C173.803 138.524 173.797 138.544 174 138.619Z" fill="#FCCC43"/>
<path fill-rule="evenodd" clip-rule="evenodd" d="M130.744 11.667C130.744 16.387 130.765 18.319 130.792 15.958C130.818 13.598 130.818 9.735 130.792 7.375C130.765 5.015 130.744 6.94601 130.744 11.667ZM271.91 15.917C271.91 19.95 271.932 21.576 271.958 19.53C271.985 17.485 271.985 14.185 271.958 12.197C271.932 10.209 271.91 11.883 271.91 15.917ZM94.569 13.917C94.569 15.567 94.594 16.219 94.624 15.367C94.655 14.514 94.654 13.164 94.624 12.367C94.593 11.569 94.569 12.267 94.569 13.917ZM130.727 39.833C130.727 40.704 130.755 41.06 130.789 40.625C130.824 40.19 130.824 39.477 130.789 39.042C130.755 38.606 130.727 38.962 130.727 39.833ZM221 83.833C221 83.925 221.206 83.999 221.458 83.997C221.815 83.995 221.861 83.959 221.667 83.833C221.341 83.623 221 83.623 221 83.833Z" fill="#5C3C94"/>
<path fill-rule="evenodd" clip-rule="evenodd" d="M1.341 1.21899C0.959004 1.39999 0.620003 1.71099 0.505003 1.98899C0.297003 2.48899 0.342005 49.007 0.551005 50.167C0.720005 51.101 0.829004 51.858 0.925004 52.75C1.032 53.738 1.104 54.164 1.334 55.167C1.429 55.579 1.544 56.142 1.589 56.417C1.675 56.938 1.94 57.953 2.177 58.667C2.253 58.896 2.439 59.571 2.59 60.167C2.878 61.304 2.887 61.329 3.587 62.908C3.828 63.453 4.036 64.035 4.048 64.2C4.061 64.365 4.124 64.5 4.189 64.5C4.253 64.5 4.468 64.987 4.667 65.583C4.865 66.179 5.109 66.667 5.208 66.667C5.308 66.667 5.34101 66.714 5.28301 66.773C5.22401 66.831 5.322 67.083 5.5 67.333C5.678 67.583 5.776 67.835 5.717 67.894C5.659 67.952 5.693 68 5.792 68C5.891 68 6.14201 68.375 6.34901 68.833C6.55701 69.292 6.78801 69.667 6.86301 69.667C6.93801 69.667 7 69.773 7 69.903C7 70.033 7.056 70.164 7.125 70.194C7.261 70.255 7.75 70.898 8.753 72.333C9.106 72.838 9.674 73.55 10.017 73.917C10.359 74.283 10.804 74.794 11.005 75.05C11.207 75.307 11.401 75.488 11.437 75.452C11.472 75.417 12.024 75.891 12.663 76.508C13.302 77.124 14.22 77.903 14.704 78.239C16.306 79.351 16.748 79.66 16.925 79.789C17.111 79.925 17.23 79.993 18.667 80.787C19.781 81.404 21.599 82.315 22.167 82.541C22.396 82.633 22.79 82.815 23.042 82.946C23.294 83.078 23.5 83.145 23.5 83.096C23.5 83.047 24.006 83.184 24.625 83.401C27.253 84.322 29.056 84.729 32.245 85.121C34.983 85.458 40.466 85.178 43.167 84.563C44.88 84.173 45.06 84.127 45.5 83.96C45.637 83.908 46.275 83.699 46.917 83.495C47.558 83.292 48.571 82.901 49.167 82.627C51.297 81.647 52.085 81.251 52.185 81.112C52.241 81.035 52.335 80.977 52.393 80.984C52.549 81.003 54.407 79.801 54.472 79.639C54.503 79.562 54.623 79.5 54.74 79.5C54.856 79.5 55.136 79.328 55.363 79.119C55.589 78.909 55.994 78.566 56.262 78.357C56.53 78.147 57.162 77.586 57.667 77.109C59.941 74.959 60.611 74.866 62.299 76.466C62.56 76.714 63.031 77.128 63.345 77.385C63.66 77.643 64.179 78.078 64.5 78.351C64.821 78.624 65.365 78.996 65.708 79.177C66.052 79.359 66.333 79.572 66.333 79.651C66.333 79.73 66.465 79.84 66.625 79.895C66.785 79.951 67.142 80.146 67.417 80.33C67.692 80.513 68.104 80.756 68.333 80.87C68.563 80.984 68.787 81.116 68.833 81.163C69.071 81.41 70.634 82.144 70.726 82.052C70.785 81.993 70.833 82.032 70.833 82.139C70.833 82.246 70.89 82.321 70.958 82.306C71.027 82.292 71.294 82.367 71.553 82.473C71.811 82.58 72.086 82.667 72.164 82.667C72.242 82.667 72.331 82.728 72.361 82.802C72.392 82.877 73.204 83.184 74.167 83.486C75.129 83.787 76.029 84.075 76.167 84.127C76.304 84.178 76.639 84.251 76.911 84.29C77.183 84.328 77.527 84.425 77.676 84.505C77.825 84.585 78.314 84.7 78.763 84.761C79.211 84.822 79.729 84.922 79.914 84.984C80.099 85.047 80.494 85.082 80.792 85.063C81.09 85.044 81.333 85.091 81.333 85.167C81.333 85.244 83.265 85.281 85.625 85.25C89.763 85.195 90.256 85.168 91.167 84.941C91.396 84.884 91.808 84.805 92.083 84.766C92.358 84.726 92.583 84.678 92.583 84.659C92.583 84.64 92.733 84.604 92.917 84.58C93.492 84.504 94.904 84.134 95.206 83.98C95.365 83.899 95.567 83.833 95.654 83.833C95.74 83.833 96.023 83.746 96.281 83.639C96.539 83.532 96.787 83.432 96.833 83.417C96.879 83.401 97.128 83.301 97.386 83.194C97.644 83.087 97.921 83 98.002 83C98.083 83 98.483 82.823 98.891 82.606C99.298 82.389 99.822 82.164 100.054 82.106C100.287 82.047 100.579 81.906 100.704 81.791C101.002 81.518 101.451 81.241 102.167 80.889C102.802 80.576 104.033 79.814 104.167 79.652C104.212 79.596 104.438 79.452 104.667 79.333C105.155 79.078 105.826 78.583 106.474 78C106.728 77.771 107.306 77.288 107.76 76.926C108.861 76.048 110.833 74.062 110.833 73.832C110.833 73.73 110.908 73.693 111 73.75C111.092 73.807 111.167 73.792 111.167 73.716C111.167 73.641 111.335 73.393 111.542 73.163C112.195 72.438 113.167 71.198 113.167 71.09C113.167 71.032 113.355 70.782 113.585 70.534C113.815 70.286 114.05 69.933 114.108 69.75C114.165 69.567 114.26 69.379 114.318 69.333C114.377 69.287 114.679 68.762 114.99 68.167C115.301 67.571 115.599 67.046 115.653 67C115.846 66.834 116.5 65.374 116.5 65.107C116.5 64.956 116.575 64.833 116.667 64.833C116.758 64.833 116.82 64.777 116.804 64.708C116.788 64.64 116.873 64.358 116.992 64.083C117.111 63.808 117.271 63.433 117.348 63.25C117.526 62.826 118.206 60.576 118.582 59.167C118.741 58.571 118.945 57.882 119.035 57.635C119.125 57.389 119.153 57.112 119.097 57.022C119.041 56.931 119.072 56.809 119.167 56.75C119.261 56.691 119.309 56.593 119.274 56.53C119.238 56.468 119.274 56.004 119.354 55.5C119.434 54.996 119.53 54.396 119.566 54.167C119.603 53.938 119.686 53.225 119.752 52.583C119.817 51.942 119.896 51.192 119.927 50.917C120.108 49.311 120.288 5.23099 120.127 2.11599C120.118 1.95099 119.894 1.63399 119.629 1.41099L119.147 1.005L107.782 1.003C96.065 1.002 95.491 1.03199 94.9 1.68499C94.592 2.02499 94.582 2.698 94.55 25.059C94.509 53.377 94.587 51.722 93.161 54.492C92.529 55.718 90.751 57.833 90.352 57.833C90.259 57.833 90.123 57.935 90.05 58.059C89.737 58.587 86.701 59.774 85.293 59.918C83.282 60.124 80.704 59.863 79.939 59.375C79.835 59.309 79.712 59.252 79.667 59.249C79.438 59.232 77.833 58.261 77.833 58.14C77.833 58.063 77.738 58 77.62 58C77.503 58 77.297 57.869 77.162 57.708C76.128 56.482 75.526 55.643 75.218 55C74.767 54.058 74.157 52.545 74.085 52.188C74.054 52.039 73.95 51.71 73.852 51.458C73.755 51.206 73.705 51 73.742 51C73.778 51 73.663 50.588 73.486 50.083C73.174 49.196 73.164 48.503 73.167 28.292C73.169 16.81 73.17 6.16699 73.169 4.63999L73.167 1.863L72.375 1.473L71.583 1.08299H60.333C48.115 1.08299 48.159 1.08 47.662 2.009C47.562 2.195 47.501 11.351 47.499 26.395C47.497 42.319 47.439 50.518 47.328 50.586C47.236 50.643 47.205 50.76 47.258 50.846C47.351 50.997 47.1 51.966 46.824 52.521C46.75 52.67 46.638 53.065 46.576 53.398C46.513 53.731 46.395 54.045 46.312 54.096C46.229 54.148 46.01 54.487 45.824 54.851C45.445 55.595 44.998 56.169 44.219 56.911C43.457 57.636 42.638 58.333 42.546 58.333C42.503 58.333 42.264 58.478 42.016 58.656C41.767 58.833 41.361 59.028 41.115 59.09C40.868 59.152 40.667 59.278 40.667 59.369C40.667 59.461 40.563 59.496 40.437 59.448C40.311 59.399 40.142 59.422 40.062 59.499C38.979 60.54 31.167 59.492 31.167 58.306C31.167 58.219 31.092 58.193 31 58.25C30.908 58.307 30.833 58.261 30.833 58.149C30.833 58.036 30.79 57.988 30.736 58.042C30.683 58.095 30.505 58.014 30.342 57.861C30.178 57.708 29.79 57.358 29.479 57.083C29.168 56.808 28.652 56.208 28.332 55.75C28.012 55.292 27.704 54.879 27.649 54.833C27.348 54.586 26.388 51.876 26.319 51.083C26.27 50.52 26.169 32.693 26.125 16.972L26.083 2.02699L25.69 1.60799C25.11 0.990995 24.998 0.984998 13.026 0.948998C2.663 0.918998 1.945 0.934987 1.341 1.21899ZM134 1.16299C132.034 1.26799 131.298 1.497 131.029 2.087C130.611 3.003 130.671 45.749 131.095 50.24C131.182 51.159 131.305 52.084 131.494 53.25C131.78 55.016 131.857 55.376 132.36 57.33C132.633 58.386 132.883 59.376 132.916 59.531C132.949 59.685 133.05 59.948 133.139 60.114C133.228 60.281 133.291 60.454 133.278 60.5C133.246 60.622 133.857 62.221 134.014 62.422C134.087 62.516 134.183 62.791 134.226 63.031C134.27 63.272 134.459 63.757 134.646 64.11C134.833 64.462 135.094 64.975 135.225 65.25C135.627 66.094 136.129 67.004 136.32 67.233C136.419 67.353 136.681 67.791 136.902 68.206C137.279 68.915 137.619 69.391 138.137 69.935C138.258 70.063 138.297 70.167 138.224 70.167C138.15 70.167 138.256 70.335 138.459 70.542C139.101 71.196 139.667 71.878 139.667 71.999C139.667 72.063 140.333 72.783 141.148 73.599C142.479 74.933 143.187 75.578 144.5 76.65C144.729 76.837 145.029 77.092 145.167 77.217C145.304 77.342 145.792 77.697 146.25 78.004C146.708 78.312 147.109 78.626 147.14 78.702C147.206 78.862 148.128 79.362 148.235 79.295C148.274 79.27 148.481 79.409 148.695 79.603C149.097 79.97 149.75 80.349 150.542 80.676C150.794 80.781 151 80.938 151 81.026C151 81.114 151.075 81.14 151.167 81.083C151.258 81.027 151.333 81.064 151.333 81.167C151.333 81.269 151.397 81.314 151.475 81.265C151.553 81.217 151.902 81.323 152.25 81.5C152.598 81.677 152.947 81.783 153.025 81.735C153.103 81.686 153.167 81.726 153.167 81.823C153.167 81.921 153.298 82 153.458 82.001C153.619 82.002 153.97 82.117 154.238 82.257C154.661 82.477 155.09 82.608 155.537 82.654C155.604 82.661 155.682 87.898 155.712 94.292C155.742 100.685 155.813 106.067 155.871 106.25C155.928 106.433 155.98 106.659 155.987 106.752C155.994 106.844 156.191 107.126 156.423 107.377C156.656 107.628 156.792 107.833 156.724 107.833C156.308 107.833 157.854 108.679 158.539 108.826C159.758 109.088 178.171 109.05 179.15 108.784C180.213 108.495 181.107 107.614 181.504 106.462C181.819 105.55 181.833 105.026 181.836 94.379L181.839 83.25L183.545 82.591C184.483 82.228 185.53 81.759 185.872 81.549C186.214 81.339 186.56 81.167 186.641 81.167C186.722 81.167 186.967 81.026 187.186 80.854C187.405 80.681 187.847 80.392 188.167 80.21C189.521 79.441 190.074 79.082 190.466 78.719C190.695 78.507 190.984 78.333 191.108 78.333C191.232 78.333 191.333 78.263 191.333 78.178C191.333 78.092 191.465 77.981 191.625 77.929C191.785 77.878 192.264 77.517 192.689 77.126C193.113 76.736 193.778 76.159 194.166 75.844C194.988 75.176 195.996 74.139 195.999 73.958C195.999 73.89 196.112 73.833 196.25 73.833C196.387 73.833 196.5 73.762 196.5 73.674C196.5 73.587 196.706 73.31 196.958 73.058C197.42 72.598 198.631 71.118 199.25 70.259C199.433 70.005 199.668 69.706 199.772 69.596C199.876 69.486 200.13 69.063 200.336 68.656C200.543 68.249 200.778 67.874 200.858 67.822C200.939 67.77 201.142 67.47 201.31 67.155C202.671 64.607 203.143 63.667 203.065 63.667C203.014 63.667 203.147 63.385 203.359 63.042C203.572 62.698 203.722 62.417 203.694 62.417C203.666 62.417 203.724 62.206 203.822 61.947C203.92 61.689 204 61.386 204 61.272C204 61.159 204.068 60.995 204.151 60.908C204.362 60.687 205.01 58.552 205.109 57.753C205.154 57.387 205.252 57.012 205.328 56.919C205.545 56.651 206.054 53.681 206.242 51.583C206.3 50.942 206.415 49.817 206.498 49.083C206.581 48.35 206.646 47.637 206.644 47.5C206.641 47.362 206.646 37.171 206.655 24.853L206.672 2.455L206.245 1.89599C206.01 1.58799 205.615 1.28 205.368 1.212C204.422 0.952999 182.122 1.06099 181.667 1.32699C181.438 1.46099 181.196 1.556 181.131 1.537C180.549 1.374 180.1 20.401 180.67 21.087C180.785 21.226 180.812 23.225 180.751 27.106C180.701 30.302 180.633 36.752 180.599 41.44C180.562 46.596 180.471 50.184 180.367 50.523C180.273 50.831 180.197 51.196 180.197 51.333C180.198 51.64 179.658 53.098 179.333 53.667C179.202 53.896 179.09 54.121 179.083 54.167C179.022 54.6 178.598 55.142 177.128 56.668C176.133 57.702 173.641 59.205 172.583 59.41C172.4 59.445 171.8 59.581 171.25 59.712C170.246 59.95 167.257 59.979 166.25 59.76C165.619 59.624 163.976 59.019 163.752 58.841C163.659 58.768 163.401 58.652 163.179 58.583C162.956 58.515 162.582 58.281 162.347 58.063C162.112 57.845 161.853 57.667 161.771 57.667C161.603 57.667 159.674 55.744 159.417 55.32C158.407 53.658 158.135 53.155 157.938 52.583C157.451 51.167 157.309 50.643 157.037 49.25C156.983 48.975 156.897 38.188 156.845 25.28C156.751 2.03399 156.747 1.80799 156.417 1.61999C155.992 1.37799 155.817 1.336 154.5 1.16C153.341 1.005 136.921 1.00799 134 1.16299ZM219.583 1.231C219.206 1.397 219.031 1.62999 218.871 2.18299C218.563 3.24399 218.648 82.492 218.957 82.865C219.071 83.002 219.121 83.157 219.068 83.21C218.946 83.332 219.49 83.627 220.016 83.726C220.236 83.767 220.492 83.817 220.583 83.837C220.675 83.857 220.825 83.862 220.917 83.849C221.008 83.837 225.914 83.828 231.818 83.829L242.553 83.833L243.082 83.429C243.773 82.902 243.703 84.329 243.772 69.417C243.842 54.262 243.902 49.42 244.03 48.833C244.08 48.604 244.203 48.117 244.302 47.75C244.402 47.383 244.522 46.783 244.569 46.417C244.668 45.64 244.744 45.266 244.973 44.437C245.087 44.025 245.085 43.833 244.967 43.833C244.873 43.833 244.916 43.648 245.064 43.422C245.213 43.196 245.354 42.69 245.38 42.297C245.405 41.905 245.484 41.49 245.556 41.375C245.628 41.26 245.642 41.167 245.587 41.167C245.533 41.167 245.582 40.998 245.697 40.792C245.811 40.585 245.914 40.379 245.924 40.333C246.05 39.797 246.26 39.192 246.441 38.844C246.564 38.609 246.665 38.318 246.666 38.196C246.666 38.075 246.779 37.864 246.917 37.726C247.054 37.589 247.167 37.294 247.167 37.071C247.167 36.816 247.262 36.667 247.427 36.667C247.569 36.667 247.646 36.602 247.597 36.522C247.548 36.443 247.658 36.242 247.841 36.076C248.074 35.866 248.116 35.738 247.981 35.655C247.852 35.575 247.905 35.473 248.144 35.345C248.34 35.241 248.5 35.048 248.5 34.917C248.5 34.786 248.649 34.599 248.832 34.501C249.014 34.403 249.145 34.26 249.123 34.182C249.06 33.96 252.115 31.051 252.669 30.806C252.943 30.684 253.167 30.529 253.167 30.459C253.167 30.39 253.279 30.333 253.417 30.333C253.554 30.333 253.667 30.275 253.667 30.203C253.667 30.131 253.892 29.939 254.167 29.777C254.442 29.614 254.667 29.535 254.667 29.6C254.667 29.665 254.798 29.61 254.958 29.477C255.119 29.344 255.662 29.093 256.167 28.919C256.671 28.746 257.271 28.506 257.5 28.386C257.729 28.267 258.043 28.168 258.198 28.168C258.354 28.167 258.53 28.087 258.59 27.989C258.651 27.891 258.807 27.851 258.937 27.901C259.067 27.951 259.536 27.849 259.979 27.675C260.422 27.5 261.039 27.321 261.351 27.277C261.662 27.233 261.917 27.185 261.917 27.17C261.917 27.133 262.773 27.012 263.75 26.913C264.208 26.866 264.996 26.782 265.5 26.726C266.004 26.67 266.732 26.62 267.117 26.616C267.504 26.613 267.775 26.54 267.722 26.455C267.669 26.37 267.785 26.385 267.98 26.489C268.174 26.593 268.334 26.62 268.334 26.548C268.334 26.476 268.878 26.394 269.542 26.366C272.082 26.259 271.857 27.479 271.868 13.755C271.877 1.951 271.86 1.667 271.163 1.667C271.073 1.667 271 1.555 271 1.417C271 1.202 270.472 1.17699 267.042 1.23299C262.408 1.30799 261.167 1.37299 261.167 1.53599C261.167 1.60199 261.058 1.614 260.925 1.563C260.792 1.512 260.586 1.52999 260.468 1.60299C260.35 1.67599 260.028 1.758 259.752 1.785C259.234 1.836 258.583 1.95499 258.583 1.99999C258.583 2.01299 258.425 2.055 258.231 2.091C258.037 2.128 257.662 2.24699 257.398 2.35699C257.133 2.46599 256.879 2.56699 256.833 2.58099C256.787 2.59499 256.434 2.69699 256.049 2.80799C255.663 2.91799 255.302 3.082 255.247 3.171C255.192 3.26 254.959 3.33299 254.73 3.33299C254.498 3.33299 254.359 3.40599 254.415 3.49799C254.474 3.59299 254.407 3.62099 254.259 3.56399C254.116 3.50899 254 3.55199 254 3.65899C254 3.76599 253.925 3.80699 253.833 3.74999C253.742 3.69299 253.667 3.713 253.667 3.794C253.667 3.875 253.348 4.10699 252.958 4.30999C252.011 4.80399 251.674 5.01399 251.114 5.45799C250.854 5.66499 250.541 5.83299 250.419 5.83299C250.296 5.83299 250.002 6.06399 249.765 6.34599C249.528 6.62799 249.333 6.77899 249.333 6.68099C249.333 6.58299 249.127 6.709 248.875 6.96C248.623 7.211 248.192 7.536 247.917 7.682C247.642 7.828 247.435 8.03399 247.458 8.13999C247.481 8.24599 247.388 8.33299 247.25 8.33299C247.113 8.33299 247 8.41299 247 8.50999C247 8.60699 246.939 8.64899 246.865 8.60299C246.791 8.55699 246.397 8.81499 245.99 9.17599C245.583 9.53699 245.19 9.83299 245.117 9.83299C245.044 9.83299 244.81 10.021 244.598 10.25C244.386 10.479 244.127 10.667 244.023 10.667C243.918 10.667 243.833 10.723 243.832 10.792C243.832 10.86 243.608 11.044 243.335 11.199L242.838 11.482L242.794 6.283L242.75 1.08299L231.417 1.048C222.353 1.019 219.983 1.056 219.583 1.231ZM316.309 1.078C316.239 1.146 313.509 1.371 312.633 1.382C312.293 1.386 312.049 1.44399 312.09 1.50999C312.131 1.57699 311.996 1.63599 311.791 1.64199C311.022 1.66499 310.743 1.69699 310.5 1.78999C310.362 1.84199 310.064 1.915 309.837 1.953C309.611 1.991 309.315 2.10999 309.18 2.21899C308.984 2.37799 308.964 2.37099 309.077 2.18299C309.182 2.00799 309.158 1.98599 308.984 2.09499C308.738 2.24799 308.517 2.30599 307.833 2.39599C307.137 2.48699 306.498 2.696 306.569 2.809C306.605 2.868 306.473 2.92799 306.276 2.94199C305.823 2.97299 305.569 3.04999 304.797 3.39199C304.456 3.54299 303.983 3.667 303.746 3.667C303.5 3.667 303.358 3.73899 303.417 3.83299C303.473 3.92499 303.379 3.99999 303.208 3.99999C303.036 3.99999 302.585 4.14999 302.206 4.33299C301.827 4.51699 301.396 4.667 301.248 4.667C301.101 4.667 301.027 4.74199 301.083 4.83299C301.14 4.92499 301.027 4.99999 300.833 4.99999C300.606 4.99999 300.523 5.07 300.601 5.195C300.682 5.326 300.63 5.35499 300.444 5.28399C300.291 5.22499 300.167 5.258 300.167 5.356C300.167 5.455 300.054 5.492 299.917 5.44C299.779 5.387 299.667 5.416 299.667 5.505C299.667 5.594 299.554 5.667 299.417 5.667C299.279 5.667 299.167 5.74199 299.167 5.83299C299.167 5.92499 299.11 5.98699 299.042 5.97099C298.904 5.93899 297.966 6.354 297.833 6.505C297.787 6.558 297.45 6.78099 297.083 6.99999C296.717 7.21899 296.362 7.47799 296.294 7.57499C296.227 7.67099 296.171 7.691 296.169 7.619C296.168 7.546 296.005 7.63699 295.808 7.82099C295.611 8.00499 295.386 8.11599 295.308 8.06799C295.23 8.01999 295.166 8.041 295.166 8.115C295.165 8.189 294.884 8.43699 294.541 8.66499C294.197 8.89399 293.862 9.15599 293.794 9.24899C293.727 9.34099 293.671 9.36199 293.669 9.29499C293.668 9.22699 293.402 9.42899 293.079 9.74299C292.756 10.057 292.343 10.361 292.16 10.419C291.978 10.477 291.872 10.594 291.924 10.679C291.977 10.764 291.959 10.835 291.885 10.836C291.717 10.84 290.739 11.621 290.268 12.127C288.992 13.496 288.295 14.167 288.149 14.167C288.056 14.167 288.021 14.233 288.072 14.314C288.122 14.396 288.006 14.503 287.815 14.553C287.622 14.604 287.516 14.724 287.577 14.823C287.638 14.922 287.571 15.047 287.427 15.102C287.284 15.157 287.167 15.269 287.167 15.352C287.167 15.434 286.889 15.763 286.549 16.084C286.209 16.404 285.995 16.667 286.073 16.667C286.152 16.667 285.98 16.892 285.692 17.167C285.404 17.443 285.186 17.687 285.208 17.709C285.264 17.767 284.275 19.072 284.124 19.139C284.055 19.17 284.039 19.261 284.089 19.342C284.139 19.423 283.952 19.728 283.673 20.019C283.395 20.311 283.167 20.619 283.167 20.703C283.167 20.787 282.94 21.185 282.664 21.587C282.388 21.989 282.116 22.545 282.06 22.823C282.005 23.101 281.898 23.29 281.823 23.243C281.661 23.144 281.161 24.139 281.123 24.633C281.109 24.822 281.042 24.942 280.974 24.9C280.905 24.858 280.758 25.145 280.646 25.537C280.534 25.929 280.335 26.377 280.204 26.532C280.073 26.687 279.955 26.999 279.941 27.224C279.928 27.45 279.86 27.6 279.792 27.558C279.723 27.515 279.667 27.638 279.667 27.83C279.667 28.023 279.527 28.458 279.356 28.798C279.186 29.138 279.08 29.51 279.12 29.625C279.161 29.74 279.122 29.833 279.032 29.833C278.897 29.833 278.655 30.621 278.597 31.25C278.589 31.342 278.486 31.585 278.368 31.792C278.195 32.097 278.195 32.167 278.369 32.169C278.52 32.171 278.509 32.22 278.333 32.333C278.196 32.422 278.142 32.496 278.214 32.497C278.286 32.499 278.273 32.634 278.186 32.797C278.098 32.961 277.981 33.399 277.926 33.771C277.87 34.143 277.754 34.695 277.667 34.998C277.581 35.3 277.549 35.612 277.598 35.69C277.647 35.769 277.626 35.833 277.552 35.833C277.477 35.833 277.4 36.152 277.38 36.542C277.36 36.931 277.294 37.662 277.232 38.167C277.063 39.551 277.063 45.247 277.232 46.667C277.314 47.354 277.397 48.183 277.417 48.509C277.436 48.835 277.544 49.377 277.655 49.714C277.766 50.051 277.81 50.403 277.752 50.497C277.694 50.59 277.716 50.667 277.801 50.667C277.885 50.667 277.934 50.854 277.908 51.083C277.883 51.313 277.931 51.5 278.015 51.5C278.098 51.5 278.167 51.748 278.167 52.05C278.167 52.352 278.239 52.673 278.328 52.761C278.417 52.85 278.532 53.221 278.584 53.586C278.636 53.951 278.804 54.588 278.958 55C279.113 55.412 279.248 55.787 279.258 55.833C279.269 55.879 279.365 56.128 279.472 56.386C279.579 56.644 279.667 56.919 279.667 56.998C279.667 57.076 279.922 57.652 280.234 58.278C280.546 58.904 280.902 59.717 281.026 60.083C281.149 60.45 281.344 60.849 281.458 60.97C281.573 61.091 281.668 61.279 281.67 61.387C281.672 61.495 281.821 61.771 282 62C282.179 62.229 282.328 62.548 282.33 62.708C282.332 62.869 282.396 63 282.473 63C282.55 63 282.756 63.299 282.932 63.665C283.107 64.03 283.308 64.33 283.379 64.331C283.45 64.332 283.585 64.502 283.678 64.708C283.962 65.336 284.27 65.827 284.623 66.215C284.807 66.417 285.055 66.769 285.172 66.997C285.29 67.224 285.562 67.548 285.776 67.717C285.991 67.886 286.167 68.131 286.167 68.262C286.167 68.393 286.274 68.5 286.405 68.5C286.537 68.5 286.691 68.648 286.749 68.829C286.806 69.01 287.042 69.307 287.274 69.489C287.505 69.671 287.646 69.898 287.587 69.993C287.529 70.089 287.565 70.167 287.669 70.167C287.772 70.167 287.97 70.279 288.107 70.417C288.245 70.554 288.303 70.667 288.236 70.667C288.17 70.667 288.289 70.817 288.5 71C288.711 71.183 288.948 71.333 289.026 71.333C289.103 71.333 289.148 71.424 289.125 71.534C289.102 71.645 289.158 71.741 289.25 71.749C289.342 71.757 289.679 72.018 290 72.328C290.321 72.639 290.471 72.84 290.333 72.774C290.196 72.708 290.227 72.751 290.402 72.869C290.577 72.987 290.859 73.215 291.027 73.375C291.196 73.535 291.333 73.627 291.333 73.579C291.333 73.531 291.577 73.712 291.875 73.982C293.247 75.223 293.654 75.548 294.667 76.208C295.262 76.597 295.895 77.046 296.073 77.207C296.251 77.368 296.495 77.5 296.615 77.5C296.735 77.5 296.965 77.632 297.126 77.793C297.287 77.954 298.018 78.392 298.751 78.767C299.484 79.142 300.44 79.65 300.875 79.896C301.31 80.143 301.667 80.295 301.667 80.235C301.667 80.175 301.779 80.219 301.917 80.333C302.054 80.447 302.167 80.492 302.167 80.433C302.167 80.373 302.383 80.436 302.647 80.573C303.188 80.853 304.186 81.226 305.417 81.609C305.875 81.752 306.325 81.915 306.417 81.971C306.508 82.028 306.658 82.091 306.75 82.112C306.842 82.132 307.104 82.19 307.333 82.24C307.563 82.29 307.938 82.376 308.167 82.432C308.396 82.488 308.779 82.556 309.019 82.582C309.258 82.609 309.611 82.714 309.804 82.817C309.996 82.92 310.212 82.995 310.285 82.983C310.357 82.97 310.454 82.977 310.5 82.997C310.604 83.042 311.372 83.144 312.25 83.228C312.617 83.264 313.517 83.358 314.25 83.437C316.794 83.713 323.969 83.578 324.509 83.244C324.598 83.19 325.101 83.121 325.627 83.091C326.153 83.062 326.79 82.956 327.042 82.856C327.294 82.757 327.5 82.709 327.5 82.75C327.5 82.791 327.689 82.753 327.921 82.665C328.385 82.489 329.027 82.337 329.667 82.254C329.896 82.224 330.121 82.183 330.167 82.163C330.212 82.144 330.306 82.136 330.375 82.147C330.444 82.158 330.5 82.108 330.5 82.036C330.5 81.964 330.631 81.897 330.792 81.886C331.331 81.853 331.872 81.68 332.284 81.41C332.509 81.262 332.804 81.184 332.939 81.235C333.074 81.287 333.147 81.27 333.103 81.198C333.058 81.126 333.37 80.964 333.796 80.838C334.676 80.578 336.863 79.525 337.023 79.284C337.082 79.196 337.213 79.175 337.315 79.238C337.417 79.301 337.501 79.292 337.502 79.218C337.503 79.144 337.803 78.94 338.169 78.765C338.534 78.59 338.833 78.379 338.833 78.297C338.833 78.214 338.907 78.192 338.996 78.248C339.154 78.345 340.127 77.756 340.369 77.417C340.434 77.325 340.566 77.241 340.661 77.229C340.756 77.218 340.905 77.199 340.993 77.188C341.081 77.176 341.353 76.96 341.598 76.708C341.842 76.456 341.986 76.362 341.917 76.5C341.848 76.637 341.991 76.544 342.236 76.292C342.48 76.04 342.79 75.833 342.923 75.833C343.057 75.833 343.167 75.771 343.167 75.695C343.167 75.619 343.352 75.457 343.578 75.336C343.804 75.215 343.953 75.058 343.909 74.987C343.865 74.916 343.972 74.812 344.147 74.756C344.322 74.701 344.731 74.405 345.054 74.1C345.378 73.795 345.766 73.498 345.915 73.44C346.065 73.383 346.141 73.26 346.084 73.168C346.027 73.076 346.097 73 346.24 73C346.383 73 346.5 72.887 346.5 72.75C346.5 72.612 346.575 72.5 346.667 72.5C346.887 72.5 348.642 70.698 348.531 70.586C348.483 70.539 348.554 70.5 348.689 70.5C348.823 70.5 349.117 70.202 349.341 69.838C349.566 69.474 349.844 69.174 349.958 69.171C350.073 69.169 350.167 69.073 350.168 68.958C350.169 68.844 350.432 68.496 350.752 68.185C351.072 67.874 351.333 67.526 351.333 67.411C351.333 67.296 351.446 67.159 351.583 67.106C351.721 67.054 351.833 66.896 351.833 66.755C351.833 66.615 351.908 66.5 352 66.5C352.092 66.5 352.167 66.406 352.167 66.292C352.167 66.177 352.352 65.868 352.578 65.605C352.805 65.342 353.085 64.911 353.202 64.647C353.319 64.383 353.471 64.167 353.541 64.167C353.61 64.167 353.667 64.06 353.667 63.931C353.667 63.801 353.745 63.668 353.841 63.636C353.936 63.605 354.027 63.411 354.043 63.206C354.058 63.001 354.119 62.833 354.177 62.833C354.235 62.833 354.418 62.533 354.583 62.167C354.749 61.8 354.952 61.5 355.035 61.5C355.118 61.5 355.14 61.425 355.083 61.333C355.027 61.242 355.064 61.167 355.167 61.167C355.269 61.167 355.307 61.092 355.25 61C355.193 60.908 355.226 60.833 355.323 60.833C355.421 60.833 355.485 60.777 355.467 60.708C355.404 60.468 355.691 59.833 355.862 59.833C355.958 59.833 355.995 59.726 355.944 59.596C355.894 59.465 355.959 59.27 356.088 59.163C356.217 59.056 356.31 58.919 356.294 58.859C356.279 58.799 356.433 58.431 356.636 58.042C356.84 57.652 356.959 57.333 356.9 57.333C356.841 57.333 356.871 57.239 356.967 57.123C357.309 56.711 357.279 55.962 356.917 55.876C356.651 55.813 337.507 55.773 336.251 55.832C336.069 55.841 335.748 55.96 335.538 56.098C335.329 56.235 335.09 56.306 335.009 56.255C334.927 56.205 334.759 56.258 334.634 56.373C334.51 56.489 334.303 56.607 334.174 56.635C334.044 56.664 333.856 56.8 333.754 56.939C333.653 57.077 333.498 57.167 333.41 57.139C333.322 57.112 333.061 57.275 332.83 57.503C331.94 58.38 330.575 59.495 330.389 59.498C330.282 59.499 330.169 59.559 330.139 59.632C330.029 59.891 328.477 60.833 328.158 60.833C327.98 60.833 327.833 60.898 327.833 60.977C327.833 61.124 325.573 62.129 325.044 62.217C324.882 62.244 324.563 62.369 324.333 62.495C324.104 62.62 323.896 62.702 323.872 62.677C323.822 62.626 322.705 62.841 322.208 62.998C322.14 63.019 321.915 63.023 321.708 63.007C321.502 62.99 321.333 63.043 321.333 63.124C321.333 63.206 321.061 63.251 320.729 63.225C320.397 63.199 319.994 63.247 319.834 63.333C319.675 63.418 319.507 63.452 319.463 63.407C319.419 63.363 318.565 63.294 317.566 63.255C315.194 63.161 314.579 63.072 312.833 62.571C312.329 62.427 311.823 62.302 311.708 62.293C311.594 62.285 311.5 62.211 311.5 62.129C311.5 62.047 311.434 62.021 311.354 62.071C311.199 62.166 308.716 60.997 307.981 60.482C307.742 60.314 307.5 60.223 307.443 60.279C307.387 60.335 307.294 60.258 307.236 60.108C307.179 59.958 307.065 59.877 306.983 59.927C306.9 59.978 306.833 59.949 306.833 59.862C306.833 59.67 306.006 59.111 305.721 59.111C305.607 59.111 305.556 59.044 305.607 58.961C305.658 58.878 305.543 58.77 305.35 58.719C305.158 58.669 305 58.562 305 58.481C305 58.4 304.887 58.333 304.75 58.333C304.612 58.333 304.5 58.25 304.5 58.149C304.5 58.047 304.069 57.56 303.542 57.066C303.015 56.571 302.639 56.167 302.707 56.167C302.775 56.167 302.614 55.96 302.351 55.708C302.087 55.456 301.87 55.189 301.868 55.113C301.866 55.038 301.557 54.567 301.182 54.065C300.807 53.563 300.5 53.098 300.5 53.032C300.5 52.965 300.303 52.62 300.061 52.265C299.82 51.91 299.714 51.676 299.825 51.745C299.936 51.814 299.834 51.563 299.597 51.188C299.36 50.813 299.167 50.392 299.167 50.251C299.167 50.11 299.1 49.865 299.019 49.706C298.691 49.06 298.511 48.542 298.338 47.75C298.121 46.753 298.035 46.417 297.997 46.417C297.982 46.417 297.953 46.115 297.934 45.746C297.916 45.378 297.863 45.003 297.817 44.913C297.771 44.823 297.737 43.907 297.742 42.876C297.747 41.777 297.681 40.972 297.583 40.931C297.492 40.892 297.508 40.854 297.62 40.846C297.731 40.839 297.779 40.72 297.726 40.581C297.673 40.443 297.706 40.236 297.799 40.123C297.892 40.009 297.945 39.654 297.917 39.333C297.888 39.012 297.919 38.675 297.986 38.583C298.052 38.492 298.119 38.208 298.135 37.953C298.151 37.698 298.279 37.266 298.42 36.994C298.615 36.616 298.625 36.499 298.463 36.497C298.295 36.495 298.294 36.467 298.457 36.363C298.571 36.291 298.842 35.711 299.058 35.074C299.563 33.591 300.844 31.155 301.186 31.027C301.269 30.996 301.419 30.818 301.519 30.632C301.663 30.362 301.654 30.317 301.475 30.412C301.351 30.477 301.54 30.261 301.893 29.932C302.247 29.603 302.489 29.333 302.432 29.333C302.374 29.333 302.868 28.79 303.53 28.125C304.192 27.46 304.789 26.917 304.857 26.917C304.925 26.917 305.126 26.767 305.303 26.583C305.711 26.162 306.313 25.667 306.417 25.667C306.499 25.667 307.035 25.244 307.435 24.863C307.563 24.742 307.667 24.694 307.667 24.757C307.667 24.82 307.854 24.749 308.083 24.599C308.313 24.449 308.502 24.384 308.505 24.454C308.508 24.525 308.587 24.452 308.68 24.292C308.773 24.131 308.977 23.998 309.133 23.996C309.289 23.994 309.604 23.846 309.833 23.667C310.063 23.487 310.386 23.339 310.553 23.337C310.719 23.335 310.99 23.261 311.155 23.173C311.319 23.085 311.693 22.971 311.985 22.919C312.278 22.868 312.644 22.759 312.8 22.678C313.14 22.5 315.029 22.071 315.215 22.13C315.288 22.153 315.503 22.088 315.694 21.986C315.959 21.844 316.011 21.847 315.917 22C315.822 22.154 315.881 22.153 316.171 21.998C316.85 21.634 321.435 21.847 322.958 22.311C323.256 22.402 323.5 22.429 323.5 22.372C323.5 22.314 323.59 22.357 323.7 22.467C323.81 22.577 324.054 22.668 324.242 22.669C324.629 22.672 325.558 22.986 326.145 23.313C326.362 23.434 326.495 23.459 326.439 23.369C326.318 23.173 328.526 24.308 328.963 24.667C329.13 24.804 329.54 25.057 329.874 25.229C330.208 25.401 330.52 25.645 330.568 25.771C330.617 25.897 330.757 26 330.879 26C331.002 26 331.448 26.319 331.871 26.708C332.293 27.098 332.776 27.536 332.944 27.682C333.351 28.035 334.327 29.167 334.224 29.167C334.179 29.167 334.242 29.273 334.363 29.403C334.484 29.533 334.733 29.833 334.917 30.068C335.1 30.304 335.381 30.659 335.542 30.857C335.702 31.055 335.833 31.251 335.833 31.293C335.833 31.334 329.815 31.349 322.458 31.326C315.102 31.303 308.933 31.295 308.75 31.309C308.376 31.338 307.131 32.408 307.288 32.566C307.343 32.621 307.301 32.667 307.194 32.667C307.087 32.667 307.009 32.723 307.02 32.792C307.031 32.86 307.024 32.954 307.004 33C306.787 33.515 306.886 46.425 307.11 46.767C307.254 46.987 307.323 47.167 307.263 47.167C307.046 47.167 308.292 48.159 308.682 48.296C309.684 48.649 359.052 48.441 359.1 48.083C359.124 47.9 359.189 47.45 359.244 47.083C359.298 46.717 359.392 46.079 359.452 45.667C359.512 45.254 359.561 43.604 359.561 42C359.561 39.357 359.512 38.487 359.258 36.667C359.214 36.346 359.142 35.821 359.098 35.5C359.055 35.179 358.976 34.729 358.924 34.5C358.871 34.271 358.797 33.858 358.758 33.583C358.719 33.308 358.576 32.771 358.44 32.39C358.303 32.009 358.229 31.659 358.275 31.614C358.321 31.568 358.226 31.28 358.064 30.974C357.902 30.667 357.756 30.229 357.74 30C357.692 29.336 357.678 29.307 357.458 29.434C357.344 29.499 357.303 29.495 357.367 29.424C357.431 29.352 357.34 28.916 357.165 28.454C356.989 27.993 356.882 27.557 356.926 27.486C356.969 27.415 356.929 27.309 356.836 27.252C356.743 27.194 356.667 27.001 356.667 26.823C356.667 26.646 356.6 26.5 356.519 26.5C356.437 26.5 356.321 26.237 356.261 25.917C356.201 25.596 356.08 25.333 355.992 25.333C355.905 25.333 355.844 25.277 355.857 25.208C355.907 24.95 355.46 24 355.289 24C355.191 24 355.159 23.952 355.217 23.894C355.276 23.835 355.176 23.58 354.995 23.326C354.814 23.073 354.667 22.792 354.667 22.703C354.667 22.614 354.551 22.445 354.409 22.327C354.267 22.209 354.192 22.009 354.241 21.881C354.289 21.754 354.274 21.682 354.206 21.722C354.139 21.761 353.846 21.39 353.555 20.895C353.264 20.401 353.114 20.041 353.222 20.094C353.329 20.148 353.285 20.084 353.125 19.952C352.965 19.821 352.833 19.623 352.833 19.513C352.833 19.404 352.767 19.355 352.686 19.405C352.604 19.455 352.493 19.366 352.438 19.206C352.258 18.684 351.636 17.76 351.312 17.533C351.137 17.411 351.034 17.246 351.083 17.167C351.132 17.088 351.02 16.976 350.836 16.917C350.651 16.859 350.5 16.695 350.5 16.553C350.5 16.411 350.219 16.01 349.875 15.663C349.531 15.316 348.95 14.678 348.583 14.245C347.608 13.093 346.101 11.583 345.968 11.625C345.904 11.644 345.691 11.455 345.494 11.205C345.298 10.955 345.085 10.75 345.022 10.75C344.899 10.75 344.594 10.507 343.824 9.79699C343.554 9.54799 343.331 9.398 343.328 9.464C343.325 9.53 343.247 9.452 343.153 9.292C343.06 9.131 342.883 8.99999 342.76 8.99999C342.636 8.99999 342.493 8.888 342.44 8.751C342.387 8.614 342.042 8.381 341.673 8.233C341.304 8.086 341.044 7.89799 341.094 7.81599C341.145 7.73399 341.032 7.667 340.843 7.667C340.654 7.667 340.35 7.51699 340.167 7.33299C339.983 7.14999 339.758 6.99999 339.667 6.99999C339.575 6.99999 339.5 6.92099 339.5 6.82299C339.5 6.72599 339.425 6.69299 339.333 6.74999C339.242 6.80699 339.167 6.77499 339.167 6.67999C339.167 6.58399 338.96 6.456 338.708 6.393C338.456 6.331 338.025 6.114 337.75 5.912C337.475 5.709 337.156 5.57699 337.042 5.61799C336.927 5.65999 336.833 5.621 336.833 5.531C336.833 5.442 336.535 5.22099 336.171 5.04099C335.807 4.85999 335.557 4.79599 335.616 4.89799C335.676 4.99999 335.561 4.94 335.362 4.766C335.163 4.591 335 4.49899 335 4.56199C335 4.62399 334.756 4.54599 334.458 4.38799C334.16 4.23099 333.812 4.08399 333.683 4.06199C333.555 4.03999 333.387 3.92299 333.311 3.80299C333.196 3.62199 333.171 3.62199 333.169 3.80399C333.167 3.96899 333.101 3.95799 332.905 3.76199C332.761 3.61799 332.592 3.49399 332.53 3.48599C331.809 3.39899 331.407 3.285 331.361 3.156C331.331 3.07 331.167 2.99999 330.997 2.99999C330.827 2.99999 330.477 2.913 330.219 2.807C329.961 2.701 329.619 2.63099 329.458 2.65099C329.298 2.67099 329.167 2.603 329.167 2.501C329.167 2.398 329.1 2.35499 329.019 2.40499C328.938 2.45499 328.657 2.42399 328.394 2.33599C328.132 2.24899 327.729 2.154 327.5 2.126C327.271 2.098 326.999 2.02199 326.896 1.95699C326.793 1.89199 326.362 1.81899 325.938 1.79499C325.515 1.76999 325.168 1.712 325.167 1.667C325.167 1.621 324.998 1.575 324.792 1.565C324.585 1.554 324.092 1.496 323.694 1.436C323.297 1.375 322.622 1.287 322.194 1.24C321.231 1.134 316.389 1.001 316.309 1.078Z" fill="#5C3494"/>
<path fill-rule="evenodd" clip-rule="evenodd" d="M159.8 112.755C159.667 112.889 158.966 113.034 158.533 113.017C158.321 113.009 158.186 113.063 158.232 113.138C158.278 113.212 158.046 113.37 157.716 113.49C157.022 113.741 156.094 114.607 156.389 114.728C156.499 114.773 156.469 114.813 156.32 114.82C155.677 114.852 154.976 117.195 155.08 118.963C155.125 119.717 155.102 120.333 155.03 120.333C154.957 120.333 154.903 122.689 154.908 125.567C154.913 128.446 154.968 130.77 155.03 130.731C155.093 130.693 155.191 130.737 155.248 130.831C155.306 130.924 155.874 131 156.51 131H157.667V132.333C157.667 133.111 157.597 133.667 157.5 133.667C157.399 133.667 157.333 134.389 157.333 135.5C157.333 136.611 157.399 137.333 157.5 137.333C157.592 137.333 157.667 137.45 157.667 137.593C157.667 137.736 157.592 137.807 157.5 137.75C157.144 137.53 157.359 137.963 157.86 138.476C158.15 138.772 158.488 138.976 158.61 138.929C158.733 138.882 158.833 138.916 158.833 139.005C158.833 139.235 162.272 139.21 162.719 138.977C163.664 138.486 163.672 138.453 163.634 134.794C163.615 132.933 163.657 131.318 163.726 131.205C163.854 130.999 173.012 130.887 173.528 131.085C173.704 131.153 173.745 131.909 173.727 134.763L173.705 138.356L174.102 138.507C174.321 138.59 174.5 138.702 174.5 138.756C174.5 138.809 174.413 138.799 174.308 138.734C174.186 138.659 174.161 138.689 174.239 138.816C174.335 138.972 174.417 138.971 174.608 138.813C174.804 138.65 174.842 138.657 174.801 138.847C174.745 139.105 178.13 139.296 178.656 139.064C178.799 139 179.034 138.963 179.178 138.98C179.454 139.012 180.032 138.476 179.987 138.229C179.973 138.149 179.969 136.49 179.98 134.542L180 131H180.906C181.404 131 182.002 130.928 182.235 130.839L182.658 130.678V124.642C182.658 120.133 182.606 118.543 182.454 118.355C182.287 118.149 182.293 118.129 182.487 118.245C182.673 118.358 182.694 118.32 182.584 118.069C182.508 117.894 182.439 117.588 182.431 117.391C182.423 117.193 182.368 117.062 182.309 117.098C182.25 117.135 182.16 117.055 182.108 116.921C182.057 116.787 182.083 116.635 182.167 116.583C182.25 116.532 182.274 116.373 182.22 116.231C182.139 116.022 182.093 116.015 181.979 116.194C181.872 116.363 181.833 116.367 181.815 116.208C181.802 116.094 181.773 115.925 181.75 115.833C181.727 115.742 181.699 115.554 181.688 115.417C181.676 115.279 181.535 115.166 181.375 115.164C181.126 115.162 181.12 115.138 181.333 115C181.542 114.865 181.531 114.838 181.264 114.836C181.088 114.834 180.988 114.789 181.042 114.736C181.175 114.603 180.49 113.833 180.238 113.833C180.127 113.833 179.988 113.708 179.929 113.555C179.848 113.345 179.776 113.324 179.629 113.471C179.482 113.618 179.352 113.586 179.091 113.34C178.862 113.126 178.456 112.999 177.89 112.966C177.419 112.939 177.065 112.865 177.103 112.802C177.142 112.739 173.46 112.689 168.921 112.691C164.118 112.694 160.629 112.759 160.575 112.848C160.523 112.931 160.316 112.993 160.115 112.983C159.775 112.968 159.779 112.958 160.167 112.833C160.531 112.717 160.54 112.698 160.236 112.683C160.045 112.674 159.849 112.707 159.8 112.755Z" fill="#FCD441"/>
<path fill-rule="evenodd" clip-rule="evenodd" d="M22.96 0.951012C23.168 0.991012 23.468 0.990006 23.627 0.948006C23.786 0.906006 23.617 0.874008 23.25 0.875008C22.883 0.877008 22.753 0.911012 22.96 0.951012ZM242.908 6.333C242.908 9.221 242.93 10.402 242.958 8.958C242.986 7.515 242.986 5.152 242.958 3.708C242.93 2.265 242.908 3.446 242.908 6.333ZM324.25 1.50001C324.433 1.57901 324.696 1.64301 324.833 1.64301C324.991 1.64301 324.96 1.59001 324.75 1.50001C324.567 1.42101 324.304 1.357 324.167 1.357C324.009 1.357 324.04 1.41001 324.25 1.50001ZM120.237 6.25001C120.237 8.17501 120.262 8.94001 120.291 7.94901C120.321 6.95901 120.321 5.38401 120.291 4.44901C120.261 3.51501 120.237 4.32501 120.237 6.25001ZM94.557 4.25001C94.558 4.98301 94.587 5.26301 94.622 4.87101C94.657 4.47901 94.657 3.87901 94.621 3.53701C94.585 3.19601 94.557 3.51701 94.557 4.25001ZM206.746 15.167C206.746 21.813 206.766 24.531 206.792 21.208C206.817 17.885 206.817 12.448 206.792 9.12501C206.766 5.80201 206.746 8.52102 206.746 15.167ZM304.083 3.50001C303.873 3.59001 303.842 3.64301 304 3.64301C304.137 3.64301 304.4 3.57901 304.583 3.50001C304.793 3.41001 304.824 3.357 304.667 3.357C304.529 3.357 304.267 3.42101 304.083 3.50001ZM271.893 6.833C271.893 7.704 271.922 8.06001 271.956 7.62501C271.99 7.19001 271.99 6.47702 271.956 6.04202C271.922 5.60602 271.893 5.962 271.893 6.833ZM73.241 13.083C73.242 16.2 73.264 17.451 73.291 15.864C73.319 14.277 73.319 11.727 73.291 10.198C73.264 8.66801 73.241 9.967 73.241 13.083ZM120.245 19.833C120.245 25.379 120.266 27.648 120.292 24.875C120.317 22.102 120.317 17.565 120.292 14.792C120.266 12.019 120.245 14.287 120.245 19.833ZM288.583 13.667C288.32 13.942 288.175 14.163 288.26 14.157C288.407 14.149 289.266 13.167 289.127 13.167C289.092 13.167 288.847 13.392 288.583 13.667ZM348.67 14.267C348.673 14.426 349.5 15.265 349.5 15.109C349.5 15.059 349.313 14.815 349.083 14.568C348.854 14.32 348.668 14.185 348.67 14.267ZM180.667 26.883L180.75 32.75L180.794 27.011C180.818 23.854 180.781 21.214 180.711 21.144C180.641 21.074 180.621 23.656 180.667 26.883ZM320.917 22C320.973 22.092 321.184 22.161 321.385 22.155C321.737 22.144 321.738 22.138 321.417 22C320.958 21.803 320.795 21.803 320.917 22ZM309.833 23.68L309.417 24.02L309.958 23.756C310.256 23.61 310.5 23.456 310.5 23.412C310.5 23.247 310.235 23.353 309.833 23.68ZM307.458 24.929C306.835 25.267 306.873 25.407 307.5 25.083C307.775 24.941 308 24.789 308 24.746C308 24.638 307.982 24.645 307.458 24.929ZM120.233 32.333C120.233 33.662 120.259 34.206 120.29 33.542C120.322 32.877 120.322 31.79 120.29 31.125C120.259 30.46 120.233 31.004 120.233 32.333ZM309.544 31.286C309.797 31.325 310.172 31.324 310.377 31.284C310.582 31.244 310.375 31.213 309.917 31.214C309.458 31.216 309.291 31.248 309.544 31.286ZM320.792 31.292C323.565 31.317 328.102 31.317 330.875 31.292C333.648 31.266 331.379 31.245 325.833 31.245C320.287 31.245 318.019 31.266 320.792 31.292ZM306.895 35C306.895 35.962 306.923 36.356 306.956 35.875C306.99 35.394 306.99 34.606 306.956 34.125C306.923 33.644 306.895 34.037 306.895 35ZM120.165 36.367C120.12 37.257 120.143 37.925 120.215 37.852C120.288 37.779 120.325 37.051 120.297 36.235L120.248 34.75L120.165 36.367ZM94.562 43.333C94.562 44.296 94.589 44.69 94.623 44.208C94.657 43.727 94.657 42.94 94.623 42.458C94.589 41.977 94.562 42.371 94.562 43.333ZM306.872 45.667C306.872 45.987 306.906 46.119 306.948 45.958C306.99 45.798 306.99 45.535 306.948 45.375C306.906 45.215 306.872 45.346 306.872 45.667ZM0.378998 46.333C0.378998 46.746 0.410998 46.915 0.450998 46.708C0.490998 46.502 0.490998 46.165 0.450998 45.958C0.410998 45.752 0.378998 45.921 0.378998 46.333ZM180.548 46.583C180.549 47.042 180.581 47.209 180.62 46.956C180.658 46.703 180.657 46.328 180.617 46.123C180.578 45.918 180.546 46.125 180.548 46.583ZM120.055 47.75C120.055 48.392 120.086 48.634 120.122 48.288C120.158 47.942 120.157 47.417 120.12 47.121C120.083 46.825 120.054 47.108 120.055 47.75ZM307.786 47.837C308.081 48.146 308.351 48.366 308.385 48.325C308.42 48.284 308.179 48.03 307.849 47.762L307.25 47.274L307.786 47.837ZM310.875 48.458C311.86 48.487 313.473 48.487 314.458 48.458C315.444 48.428 314.637 48.404 312.667 48.404C310.696 48.404 309.89 48.428 310.875 48.458ZM338.298 55.79C338.875 55.823 339.775 55.823 340.298 55.79C340.822 55.757 340.35 55.73 339.25 55.73C338.15 55.731 337.722 55.758 338.298 55.79ZM352.465 55.79C353.041 55.823 353.941 55.823 354.465 55.79C354.988 55.757 354.517 55.73 353.417 55.73C352.317 55.731 351.888 55.758 352.465 55.79ZM280.167 58.454C280.167 58.551 280.321 58.807 280.51 59.023L280.853 59.417L280.56 58.917C280.175 58.259 280.167 58.249 280.167 58.454ZM316.794 63.285C317.001 63.324 317.301 63.323 317.46 63.281C317.62 63.239 317.45 63.207 317.083 63.209C316.717 63.211 316.586 63.245 316.794 63.285ZM286.937 69.333C287.276 69.7 287.583 70 287.62 70C287.747 70 286.582 68.673 286.452 68.67C286.379 68.668 286.597 68.967 286.937 69.333ZM8.006 71.426C8.012 71.593 8.831 72.648 8.833 72.491C8.833 72.44 8.646 72.144 8.417 71.833C8.188 71.523 8.003 71.339 8.006 71.426Z" fill="#5C348C"/>
</svg>
