<svg width="105" height="102" viewBox="0 0 105 102" fill="none" xmlns="http://www.w3.org/2000/svg">
<g clip-path="url(#clip0_1868_232)">
<path d="M68.59 70.1678C68.3621 70.5609 68.163 70.9032 67.9654 71.2459C64.4892 77.2667 61.0127 83.2868 57.5358 89.3063C57.4332 89.4966 57.3145 89.6778 57.1811 89.8478C57.0176 90.0427 56.8121 90.198 56.5801 90.3018C56.348 90.4057 56.0955 90.4555 55.8414 90.4475C55.5874 90.4396 55.3385 90.374 55.1134 90.2557C54.8883 90.1375 54.6929 89.9697 54.542 89.7649C54.4285 89.6016 54.3283 89.4294 54.2427 89.2498C53.1255 87.0749 52.0102 84.8995 50.8966 82.7236C50.7969 82.5333 50.6971 82.3459 50.5923 82.1521C49.8071 82.185 49.0458 82.212 48.2835 82.252C47.2219 82.3049 46.1602 82.3704 45.0981 82.4239C44.2001 82.4683 43.3051 82.4968 42.4091 82.5447C41.7012 82.5827 41.1265 82.3449 40.7628 81.7259C40.3991 81.1069 40.4635 80.4929 40.8197 79.8804C43.0344 76.0502 45.2461 72.2186 47.4548 68.3857C48.8264 66.0093 50.1984 63.6327 51.5706 61.256C51.6774 61.0716 51.7802 60.8843 51.9064 60.66L50.4342 59.8216C50.2775 59.9745 50.1234 60.1214 49.9732 60.2713C36.4076 73.853 22.8429 87.4363 9.27929 101.021C8.91111 101.391 8.53096 101.736 8.01861 101.883C7.05327 102.159 6.19619 101.949 5.51072 101.218C4.83822 100.5 4.69205 99.6419 5.00635 98.7122C5.08303 98.51 5.17354 98.3134 5.27724 98.1236C12.6015 83.4545 19.9278 68.7855 27.2561 54.1167C27.3558 53.9139 27.4556 53.7091 27.5858 53.4403H26.9073C18.8454 53.4403 10.7833 53.4391 2.72096 53.4368C2.43917 53.4421 2.15763 53.4167 1.88134 53.3609C1.5313 53.283 1.20308 53.1277 0.920731 52.9064C0.63838 52.685 0.409047 52.4032 0.24953 52.0816C0.090013 51.76 0.00435191 51.4068 -0.00117881 51.0477C-0.00670954 50.6887 0.0680302 50.3329 0.217566 50.0066C0.295882 49.8412 0.384009 49.6807 0.481475 49.526C10.089 33.4896 19.6958 17.4526 29.302 1.41487C29.6956 0.756897 30.191 0.253804 30.9563 0.0819431C31.1833 0.0341691 31.4148 0.0112197 31.6467 0.0134984C41.2712 0.0105008 50.8961 0.0239899 60.5201 9.32519e-06C62.4548 -0.00498663 63.6925 1.99839 62.6902 3.73948C61.1075 6.49392 59.5315 9.25203 57.9623 12.0138C53.8904 19.15 49.8189 26.2864 45.7477 33.423C45.6584 33.5793 45.5751 33.7392 45.4868 33.9016C45.8649 34.006 48.0126 34.026 48.6162 33.9251C48.6162 33.6253 48.6162 33.3126 48.6162 33.0003C48.6123 31.5765 49.2319 30.5023 50.4541 29.7909C51.1281 29.3987 51.8226 29.0415 52.5165 28.6838C53.0334 28.418 53.5507 28.1457 54.091 27.9344C54.989 27.5847 55.5258 26.9352 55.9239 26.0819C56.4911 24.8619 57.1077 23.6629 57.7568 22.4848C58.2781 21.5356 59.0888 20.9071 60.1764 20.7327C60.7182 20.6488 61.2669 20.6178 61.8147 20.6403C62.8439 20.6788 63.8751 20.7322 64.8973 20.8521C65.8517 20.9641 66.6888 20.8087 67.4701 20.2132C68.2224 19.6396 69.0276 19.1345 69.8193 18.6145C70.194 18.3682 70.5841 18.1443 70.9797 17.933C72.1685 17.2975 73.3783 17.273 74.5482 17.9465C75.4826 18.4846 76.3746 19.0956 77.2836 19.6796C77.7592 19.985 78.232 20.2943 78.7019 20.6073C79.0051 20.8166 79.371 20.915 79.7381 20.8861C80.4834 20.8317 81.2293 20.7707 81.9756 20.7422C82.9539 20.7048 83.9347 20.6553 84.9115 20.6858C86.0684 20.7217 86.9929 21.2673 87.5975 22.252C88.1188 23.1013 88.5698 23.9921 89.0338 24.8739C89.3202 25.418 89.5826 25.973 89.8385 26.5345C90.0761 27.0708 90.5055 27.4985 91.0423 27.7336C91.7811 28.0738 92.515 28.4275 93.2374 28.7997C93.9014 29.1414 94.5639 29.4912 95.2015 29.8788C96.3459 30.5758 96.9166 31.6274 96.9062 32.9589C96.8972 34.0884 96.8114 35.2175 96.7565 36.3471C96.7341 36.8122 96.7011 37.2769 96.6782 37.7425C96.6498 38.1941 96.7754 38.6421 97.0344 39.013C97.4694 39.6424 97.9079 40.2694 98.3235 40.9114C98.7565 41.5809 99.1841 42.2558 99.5792 42.9488C100.278 44.1753 100.303 45.4303 99.5792 46.6488C98.9765 47.6625 98.3135 48.6402 97.6754 49.6329C97.4594 49.9686 97.2459 50.3058 97.0179 50.6321C96.7266 51.0497 96.6512 51.5148 96.6857 52.0074C96.7485 52.9032 96.8453 53.798 96.8722 54.6953C96.8987 55.5736 96.9032 56.4583 96.8303 57.3331C96.756 58.2209 96.2876 58.9373 95.5702 59.4584C95.1147 59.7892 94.6168 60.0614 94.1354 60.3577C93.9812 60.4521 93.8206 60.535 93.626 60.644C93.7173 60.8163 93.7956 60.9757 93.8839 61.1286C97.441 67.2946 100.999 73.4601 104.557 79.6251C104.623 79.74 104.692 79.8539 104.756 79.9713C105.433 81.2253 104.631 82.5752 103.21 82.5398C102.03 82.5108 100.852 82.4438 99.6735 82.3874C98.4123 82.3269 97.1511 82.2605 95.8899 82.1955C95.5906 82.18 95.2943 82.1596 94.956 82.1391C94.8797 82.272 94.7939 82.4094 94.7206 82.5522C93.5954 84.7415 92.4713 86.931 91.3481 89.1209C91.2798 89.2538 91.2154 89.3892 91.1421 89.5206C90.4641 90.7286 88.9126 90.7786 88.1632 89.6065C87.841 89.1024 87.5561 88.5744 87.2568 88.0578C83.9232 82.2821 80.5899 76.506 77.2566 70.7293C77.1569 70.5579 77.0526 70.3906 76.9259 70.1797C76.6814 70.3421 76.4674 70.4935 76.2449 70.6294C75.6502 70.9941 75.066 71.3788 74.4524 71.708C73.3314 72.3075 72.1855 72.3075 71.0635 71.708C70.4788 71.3963 69.9216 71.0331 69.3563 70.6858C69.1189 70.537 68.8909 70.3706 68.59 70.1678ZM16.3275 86.9347L16.4557 87.0271C16.57 86.8837 16.6717 86.7274 16.8005 86.599C27.2717 76.1075 37.7444 65.6184 48.2186 55.1319C48.3178 55.0434 48.4108 54.9483 48.497 54.8471C48.5644 54.7587 48.6387 54.6513 48.6467 54.5474C48.721 53.6186 48.7834 52.6894 48.8462 51.7602C48.8723 51.4086 48.7789 51.0586 48.5813 50.7669C48.3319 50.3927 48.0939 50.0126 47.8515 49.6349C47.2224 48.6562 46.5668 47.6929 45.9707 46.6942C45.2253 45.4453 45.2223 44.1543 45.9737 42.9068C46.5998 41.8676 47.2827 40.8635 47.9408 39.8443C48.1353 39.5445 48.3319 39.2448 48.5763 38.8681H47.7432C45.5825 38.8681 43.4214 38.8726 41.2607 38.8631C39.6144 38.8556 38.47 37.3818 38.889 35.8055C38.9728 35.4898 39.1385 35.19 39.3021 34.9028C44.8966 25.0924 50.4934 15.2836 56.0925 5.47658C56.1888 5.30772 56.2796 5.13586 56.4173 4.88456H55.7992C48.3518 4.88456 40.9045 4.88106 33.4572 4.87407C33.0311 4.87407 32.8116 5.02045 32.6011 5.37366C28.3177 12.5422 24.0279 19.7064 19.7319 26.8663C15.508 33.9152 11.2858 40.9644 7.06524 48.0137C6.96846 48.1755 6.88015 48.3424 6.75743 48.5632H31.1344C31.317 48.5632 31.5006 48.5572 31.6831 48.5697C32.7937 48.6442 33.6787 49.435 33.9127 50.5266C34.0623 51.2261 33.8418 51.8326 33.538 52.4406C27.8817 63.7618 22.2276 75.0843 16.576 86.4081C16.4887 86.58 16.4098 86.7588 16.3275 86.9347ZM62.2672 24.0516V24.0556C62.0846 24.0446 61.901 24.0431 61.7184 24.0211C61.0454 23.9386 60.5899 24.179 60.3011 24.8259C59.8815 25.7667 59.3532 26.6604 58.9541 27.6092C58.2776 29.2154 57.1581 30.324 55.5577 31.0004C54.6098 31.4001 53.7218 31.9377 52.7789 32.3493C52.0925 32.6491 51.9198 33.1402 51.9757 33.8157C52.061 34.8433 52.1039 35.875 52.2052 36.9007C52.3549 38.391 52.1493 39.7763 51.2369 41.0218C50.6078 41.8796 50.0101 42.7644 49.4554 43.6697C48.6686 44.9571 48.6572 44.6379 49.4688 45.9548C50.1129 47.004 50.8343 48.0032 51.5083 49.0319C52.0131 49.8027 52.2785 50.653 52.2356 51.5798C52.1962 52.4291 52.1289 53.2729 52.086 54.1197C52.0481 54.8691 52.0246 55.6145 51.9962 56.3619C51.9842 56.6787 52.1389 56.8935 52.4103 57.0384C52.8498 57.2727 53.2823 57.522 53.7278 57.7443C54.6348 58.1964 55.5537 58.6241 56.4572 59.0817C57.3282 59.5158 58.0363 60.2194 58.4767 61.0881C58.6977 61.5163 58.9132 61.9479 59.1252 62.3806C59.5079 63.1559 59.8591 63.9483 60.2727 64.7057C60.792 65.6549 60.6718 65.5835 61.7359 65.555C62.8 65.5265 63.8611 65.4551 64.9188 65.3512C66.4892 65.1963 67.92 65.4965 69.1927 66.4727C69.7065 66.8664 70.2543 67.2177 70.7976 67.5719C71.3269 67.9156 71.8707 68.2363 72.4075 68.5681C72.641 68.7129 72.872 68.7084 73.1059 68.5681C73.4337 68.3722 73.7724 68.1929 74.0912 67.983C75.0211 67.371 75.9421 66.7445 76.87 66.1285C77.7416 65.55 78.6964 65.2687 79.7471 65.3337C80.9903 65.4101 82.2335 65.5095 83.4782 65.5495C84.92 65.5955 84.704 65.7119 85.3795 64.4439C85.8873 63.4912 86.3493 62.512 86.8003 61.5302C87.376 60.2778 88.2909 59.395 89.5372 58.8219C90.5479 58.3573 91.5551 57.8802 92.5354 57.3551C93.643 56.7616 93.5497 56.9175 93.5093 55.667C93.4689 54.4035 93.3596 53.1425 93.2828 51.8806C93.2189 50.8344 93.4539 49.8647 94.0351 48.9869C94.3843 48.4598 94.7375 47.9377 95.0827 47.4077C95.5118 46.7547 95.9254 46.0907 96.3669 45.4468C96.6662 45.0091 96.6832 44.6114 96.3729 44.1678C95.9827 43.6097 95.6335 43.0222 95.2598 42.4522C94.8313 41.7987 94.3888 41.1532 93.9628 40.4988C93.4874 39.7676 93.2477 38.9078 93.2763 38.0357C93.2913 37.3863 93.3401 36.7368 93.3726 36.0913C93.4195 35.1446 93.4624 34.1973 93.5143 33.2511C93.5312 32.9484 93.402 32.742 93.1461 32.6016C92.7086 32.3628 92.276 32.1145 91.831 31.8907C90.8961 31.4211 89.9512 30.9715 89.0163 30.5013C88.1901 30.0913 87.5155 29.4287 87.0901 28.6094C86.8567 28.1687 86.6332 27.7226 86.4117 27.2754C86.0205 26.4861 85.6603 25.6767 85.2393 24.9064C84.7434 23.9961 84.8402 24.0006 83.7317 24.0321C82.7693 24.059 81.804 24.119 80.8491 24.2399C79.1529 24.4537 77.6218 24.14 76.2394 23.0943C75.4721 22.5128 74.6674 21.9747 73.8448 21.4706C72.617 20.7163 72.8864 20.7113 71.6467 21.4786C70.6863 22.0727 69.7639 22.7276 68.8325 23.3691C67.8218 24.0635 66.7152 24.3803 65.49 24.2839C64.4219 24.1994 63.3443 24.1305 62.2672 24.0516ZM100.215 79.0031C99.9234 78.2722 90.7594 62.469 90.4536 62.1847C90.3219 62.3531 90.1663 62.5025 90.0695 62.6843C89.7562 63.2703 89.4708 63.8714 89.163 64.4609C88.6791 65.3881 88.2151 66.3294 87.6888 67.2316C87.0233 68.3682 85.9926 68.9612 84.6755 68.9423C83.3585 68.9233 82.0554 68.8318 80.7453 68.7719L80.0419 68.7399L89.5382 85.1956C89.6948 84.9043 89.8061 84.705 89.9098 84.5022C90.72 82.9184 91.5289 81.3342 92.3364 79.7495C92.6946 79.0426 93.2424 78.6654 94.0506 78.7054C94.4995 78.7273 94.9485 78.7373 95.3975 78.7593C96.9875 78.8363 98.5794 78.9202 100.215 79.0031ZM55.9813 85.2071L65.4885 68.7329C65.1807 68.7514 64.9681 68.7664 64.7551 68.7759C63.4615 68.8348 62.1684 68.9208 60.8738 68.9433C59.5338 68.9667 58.5061 68.3562 57.8137 67.2157C57.426 66.5772 57.0793 65.9127 56.7376 65.2477C56.312 64.4199 55.9169 63.5766 55.4944 62.7498C55.3841 62.5344 55.2768 62.2921 54.9835 62.2157C54.937 62.2572 54.8953 62.3037 54.8593 62.3546C51.6807 67.8725 48.5045 73.3915 45.3306 78.9117C45.3246 78.9222 45.3346 78.9447 45.3416 78.9616C45.352 78.976 45.3641 78.989 45.3775 79.0006C47.3621 78.9057 49.3536 78.8228 51.3431 78.7098C52.2337 78.6599 52.8368 79.0221 53.2244 79.812C53.62 80.6178 54.0361 81.4137 54.4452 82.2135C54.9426 83.1827 55.4435 84.1584 55.9813 85.2071Z" fill="#5C12A7"/>
<path d="M72.7816 28.2371C81.9261 28.2441 89.366 35.701 89.3265 44.8736C89.2871 54.1161 81.74 61.3868 72.7432 61.3638C63.5672 61.3403 56.1802 53.9243 56.2037 44.7347C56.2241 35.6276 63.6575 28.2301 72.7816 28.2371ZM72.7706 31.6433C65.3527 31.5983 59.5941 37.7329 59.5841 44.7827C59.5741 51.8769 65.3612 57.9555 72.7277 57.9775C79.8572 57.999 85.9182 52.2352 85.9341 44.8511C85.9491 37.5251 80.0887 31.6478 72.7706 31.6433Z" fill="#5C12A7"/>
<path d="M70.4798 47.1215C70.7043 46.9047 70.8365 46.7808 70.9642 46.6524C73.2697 44.3469 75.5739 42.0399 77.8768 39.7315C78.3442 39.2614 78.8745 39.0261 79.5381 39.1574C80.7034 39.3888 81.2712 40.7407 80.6131 41.7334C80.4989 41.8971 80.3687 42.049 80.2245 42.187C77.464 44.9554 74.7035 47.7228 71.943 50.4893C71.3813 51.0538 70.7522 51.3416 69.968 51.0473C69.736 50.9585 69.5245 50.8234 69.3464 50.6501C68.1261 49.4471 66.9143 48.2358 65.711 47.0161C65.2081 46.5075 65.0709 45.894 65.3149 45.222C65.5529 44.5666 66.0497 44.2044 66.7332 44.1229C67.257 44.062 67.717 44.2328 68.0942 44.6065C68.7677 45.274 69.4412 45.9395 70.1087 46.6144C70.2454 46.7568 70.3426 46.9362 70.4798 47.1215Z" fill="#5C12A7"/>
</g>
<defs>
<clipPath id="clip0_1868_232">
<rect width="105" height="102" fill="white"/>
</clipPath>
</defs>
</svg>
