<svg width="1000" height="1000" viewBox="0 0 1000 1000" fill="none" xmlns="http://www.w3.org/2000/svg">
<path d="M500 134.699C701.61 134.699 865.301 298.391 865.301 500C865.301 701.61 701.61 865.301 500 865.301C298.39 865.301 134.699 701.61 134.699 500C134.699 298.391 298.39 134.699 500 134.699Z" stroke="#F9CF40" stroke-width="85" stroke-linecap="round" stroke-linejoin="round"/>
<path d="M500 134.699C701.61 134.699 865.301 298.391 865.301 500C865.301 701.61 701.61 865.301 500 865.301C298.39 865.301 134.699 701.61 134.699 500C134.699 298.391 298.39 134.699 500 134.699Z" stroke="#5E3791" stroke-width="63" stroke-linecap="round" stroke-linejoin="round"/>
<path d="M342.18 473.23C342.18 467.45 343.143 462.123 345.07 457.25C347.11 452.377 349.887 448.24 353.4 444.84C357.027 441.327 361.333 438.607 366.32 436.68C371.42 434.64 377.087 433.62 383.32 433.62C389.667 433.62 395.447 434.583 400.66 436.51C405.873 438.437 410.35 441.327 414.09 445.18C417.83 448.92 420.72 453.623 422.76 459.29C424.8 464.843 425.82 471.247 425.82 478.5C425.82 491.647 424.12 502.98 420.72 512.5C417.32 522.02 412.73 529.953 406.95 536.3C401.283 542.647 394.653 547.52 387.06 550.92C379.467 554.32 371.533 556.473 363.26 557.38L358.5 540.04C364.733 539.247 370.343 537.717 375.33 535.45C380.43 533.183 384.85 530.407 388.59 527.12C392.33 523.72 395.39 519.923 397.77 515.73C400.15 511.423 401.68 506.833 402.36 501.96C399.98 504.34 396.92 506.267 393.18 507.74C389.44 509.1 384.963 509.78 379.75 509.78H379.41C375.103 509.78 370.74 509.043 366.32 507.57C361.9 506.097 357.877 503.83 354.25 500.77C350.737 497.71 347.847 493.913 345.58 489.38C343.313 484.733 342.18 479.35 342.18 473.23ZM363.6 472.04C363.6 475.213 364.167 478.047 365.3 480.54C366.547 482.92 368.133 484.96 370.06 486.66C371.987 488.247 374.197 489.493 376.69 490.4C379.297 491.193 381.96 491.59 384.68 491.59C389.327 491.59 393.35 490.853 396.75 489.38C400.15 487.907 402.643 486.093 404.23 483.94C404.57 481.56 404.74 479.293 404.74 477.14C404.74 473.967 404.287 470.85 403.38 467.79C402.473 464.73 401.113 462.01 399.3 459.63C397.487 457.25 395.22 455.38 392.5 454.02C389.78 452.547 386.663 451.81 383.15 451.81C377.597 451.81 372.95 453.623 369.21 457.25C365.47 460.763 363.6 465.693 363.6 472.04ZM458.734 525.93C458.734 521.963 459.357 518.337 460.604 515.05C461.964 511.763 463.664 508.817 465.704 506.21C467.857 503.603 470.294 501.28 473.014 499.24C475.734 497.087 478.51 495.217 481.344 493.63C475.677 490.343 470.974 486.49 467.234 482.07C463.494 477.537 461.624 471.87 461.624 465.07C461.624 460.65 462.587 456.513 464.514 452.66C466.44 448.807 469.104 445.463 472.504 442.63C476.017 439.797 480.154 437.587 484.914 436C489.674 434.413 494.83 433.62 500.384 433.62C505.484 433.62 510.244 434.3 514.664 435.66C519.197 437.02 523.164 438.947 526.564 441.44C529.964 443.933 532.627 446.993 534.554 450.62C536.48 454.133 537.444 458.043 537.444 462.35C537.444 469.037 535.687 474.873 532.174 479.86C528.774 484.847 524.07 489.153 518.064 492.78C524.864 496.293 530.247 500.43 534.214 505.19C538.294 509.95 540.334 516.07 540.334 523.55C540.334 528.65 539.2 533.297 536.934 537.49C534.78 541.57 531.834 545.083 528.094 548.03C524.354 550.977 519.934 553.3 514.834 555C509.847 556.587 504.52 557.38 498.854 557.38C493.187 557.38 487.917 556.587 483.044 555C478.17 553.527 473.92 551.43 470.294 548.71C466.667 545.99 463.834 542.703 461.794 538.85C459.754 534.997 458.734 530.69 458.734 525.93ZM519.254 523.04C519.254 520.207 518.517 517.77 517.044 515.73C515.57 513.69 513.7 511.877 511.434 510.29C509.28 508.703 506.844 507.287 504.124 506.04C501.517 504.68 498.967 503.32 496.474 501.96C490.807 504.453 486.444 507.683 483.384 511.65C480.324 515.503 478.794 519.187 478.794 522.7C478.794 527.8 480.607 531.767 484.234 534.6C487.86 537.32 492.904 538.68 499.364 538.68C505.144 538.68 509.904 537.377 513.644 534.77C517.384 532.05 519.254 528.14 519.254 523.04ZM482.704 466.09C482.704 468.81 483.27 471.133 484.404 473.06C485.65 474.873 487.18 476.517 488.994 477.99C490.92 479.35 493.074 480.597 495.454 481.73C497.834 482.863 500.214 483.997 502.594 485.13C504.407 484.223 506.164 483.09 507.864 481.73C509.677 480.37 511.264 478.897 512.624 477.31C513.984 475.61 515.06 473.91 515.854 472.21C516.76 470.397 517.214 468.583 517.214 466.77C517.214 464.39 516.704 462.35 515.684 460.65C514.664 458.837 513.304 457.307 511.604 456.06C510.017 454.813 508.204 453.907 506.164 453.34C504.124 452.66 502.027 452.32 499.874 452.32C497.38 452.32 495.057 452.717 492.904 453.51C490.864 454.303 489.05 455.323 487.464 456.57C485.99 457.817 484.8 459.29 483.894 460.99C483.1 462.69 482.704 464.39 482.704 466.09ZM566.787 462.86C566.787 452.66 568.941 445.293 573.247 440.76C577.667 436.227 583.787 433.96 591.607 433.96C599.314 433.96 605.321 436.113 609.627 440.42C614.047 444.727 616.257 452.207 616.257 462.86C616.257 473.513 614.047 480.993 609.627 485.3C605.321 489.607 599.314 491.76 591.607 491.76C583.787 491.76 577.667 489.607 573.247 485.3C568.941 480.993 566.787 473.513 566.787 462.86ZM583.277 462.86C583.277 472.607 586.054 477.48 591.607 477.48C594.214 477.48 596.197 476.46 597.557 474.42C599.031 472.267 599.767 468.413 599.767 462.86C599.767 457.42 599.031 453.623 597.557 451.47C596.197 449.317 594.214 448.24 591.607 448.24C589.001 448.24 586.961 449.317 585.487 451.47C584.014 453.623 583.277 457.42 583.277 462.86ZM652.467 434.47L662.327 443.48L576.137 557.38L566.617 547.69L652.467 434.47ZM613.877 526.1C613.877 515.9 616.031 508.533 620.337 504C624.757 499.467 630.877 497.2 638.697 497.2C646.404 497.2 652.411 499.353 656.717 503.66C661.137 507.967 663.347 515.447 663.347 526.1C663.347 536.753 661.137 544.233 656.717 548.54C652.411 552.847 646.404 555 638.697 555C630.877 555 624.757 552.847 620.337 548.54C616.031 544.233 613.877 536.753 613.877 526.1ZM630.367 526.1C630.367 535.847 633.144 540.72 638.697 540.72C641.304 540.72 643.287 539.7 644.647 537.66C646.121 535.507 646.857 531.653 646.857 526.1C646.857 520.66 646.121 516.863 644.647 514.71C643.287 512.557 641.304 511.48 638.697 511.48C636.091 511.48 634.051 512.557 632.577 514.71C631.104 516.863 630.367 520.66 630.367 526.1Z" fill="black"/>
</svg>
