<svg width="1000" height="1000" viewBox="0 0 1000 1000" fill="none" xmlns="http://www.w3.org/2000/svg">
<path d="M500 134.699C701.61 134.699 865.301 298.391 865.301 500C865.301 701.61 701.61 865.301 500 865.301C298.39 865.301 134.699 701.61 134.699 500C134.699 298.391 298.39 134.699 500 134.699Z" stroke="#F9CF40" stroke-width="85" stroke-linecap="round" stroke-linejoin="round"/>
<path d="M500 134.699C701.61 134.699 865.301 298.391 865.301 500C865.301 701.61 701.61 865.301 500 865.301C298.39 865.301 134.699 701.61 134.699 500C134.699 298.391 298.39 134.699 500 134.699Z" stroke="#5E3791" stroke-width="63" stroke-linecap="round" stroke-linejoin="round"/>
<path d="M342.18 473.23C342.18 467.45 343.143 462.123 345.07 457.25C347.11 452.377 349.887 448.24 353.4 444.84C357.027 441.327 361.333 438.607 366.32 436.68C371.42 434.64 377.087 433.62 383.32 433.62C389.667 433.62 395.447 434.583 400.66 436.51C405.873 438.437 410.35 441.327 414.09 445.18C417.83 448.92 420.72 453.623 422.76 459.29C424.8 464.843 425.82 471.247 425.82 478.5C425.82 491.647 424.12 502.98 420.72 512.5C417.32 522.02 412.73 529.953 406.95 536.3C401.283 542.647 394.653 547.52 387.06 550.92C379.467 554.32 371.533 556.473 363.26 557.38L358.5 540.04C364.733 539.247 370.343 537.717 375.33 535.45C380.43 533.183 384.85 530.407 388.59 527.12C392.33 523.72 395.39 519.923 397.77 515.73C400.15 511.423 401.68 506.833 402.36 501.96C399.98 504.34 396.92 506.267 393.18 507.74C389.44 509.1 384.963 509.78 379.75 509.78H379.41C375.103 509.78 370.74 509.043 366.32 507.57C361.9 506.097 357.877 503.83 354.25 500.77C350.737 497.71 347.847 493.913 345.58 489.38C343.313 484.733 342.18 479.35 342.18 473.23ZM363.6 472.04C363.6 475.213 364.167 478.047 365.3 480.54C366.547 482.92 368.133 484.96 370.06 486.66C371.987 488.247 374.197 489.493 376.69 490.4C379.297 491.193 381.96 491.59 384.68 491.59C389.327 491.59 393.35 490.853 396.75 489.38C400.15 487.907 402.643 486.093 404.23 483.94C404.57 481.56 404.74 479.293 404.74 477.14C404.74 473.967 404.287 470.85 403.38 467.79C402.473 464.73 401.113 462.01 399.3 459.63C397.487 457.25 395.22 455.38 392.5 454.02C389.78 452.547 386.663 451.81 383.15 451.81C377.597 451.81 372.95 453.623 369.21 457.25C365.47 460.763 363.6 465.693 363.6 472.04ZM457.714 473.23C457.714 467.45 458.677 462.123 460.604 457.25C462.644 452.377 465.42 448.24 468.934 444.84C472.56 441.327 476.867 438.607 481.854 436.68C486.954 434.64 492.62 433.62 498.854 433.62C505.2 433.62 510.98 434.583 516.194 436.51C521.407 438.437 525.884 441.327 529.624 445.18C533.364 448.92 536.254 453.623 538.294 459.29C540.334 464.843 541.354 471.247 541.354 478.5C541.354 491.647 539.654 502.98 536.254 512.5C532.854 522.02 528.264 529.953 522.484 536.3C516.817 542.647 510.187 547.52 502.594 550.92C495 554.32 487.067 556.473 478.794 557.38L474.034 540.04C480.267 539.247 485.877 537.717 490.864 535.45C495.964 533.183 500.384 530.407 504.124 527.12C507.864 523.72 510.924 519.923 513.304 515.73C515.684 511.423 517.214 506.833 517.894 501.96C515.514 504.34 512.454 506.267 508.714 507.74C504.974 509.1 500.497 509.78 495.284 509.78H494.944C490.637 509.78 486.274 509.043 481.854 507.57C477.434 506.097 473.41 503.83 469.784 500.77C466.27 497.71 463.38 493.913 461.114 489.38C458.847 484.733 457.714 479.35 457.714 473.23ZM479.134 472.04C479.134 475.213 479.7 478.047 480.834 480.54C482.08 482.92 483.667 484.96 485.594 486.66C487.52 488.247 489.73 489.493 492.224 490.4C494.83 491.193 497.494 491.59 500.214 491.59C504.86 491.59 508.884 490.853 512.284 489.38C515.684 487.907 518.177 486.093 519.764 483.94C520.104 481.56 520.274 479.293 520.274 477.14C520.274 473.967 519.82 470.85 518.914 467.79C518.007 464.73 516.647 462.01 514.834 459.63C513.02 457.25 510.754 455.38 508.034 454.02C505.314 452.547 502.197 451.81 498.684 451.81C493.13 451.81 488.484 453.623 484.744 457.25C481.004 460.763 479.134 465.693 479.134 472.04ZM566.787 462.86C566.787 452.66 568.941 445.293 573.247 440.76C577.667 436.227 583.787 433.96 591.607 433.96C599.314 433.96 605.321 436.113 609.627 440.42C614.047 444.727 616.257 452.207 616.257 462.86C616.257 473.513 614.047 480.993 609.627 485.3C605.321 489.607 599.314 491.76 591.607 491.76C583.787 491.76 577.667 489.607 573.247 485.3C568.941 480.993 566.787 473.513 566.787 462.86ZM583.277 462.86C583.277 472.607 586.054 477.48 591.607 477.48C594.214 477.48 596.197 476.46 597.557 474.42C599.031 472.267 599.767 468.413 599.767 462.86C599.767 457.42 599.031 453.623 597.557 451.47C596.197 449.317 594.214 448.24 591.607 448.24C589.001 448.24 586.961 449.317 585.487 451.47C584.014 453.623 583.277 457.42 583.277 462.86ZM652.467 434.47L662.327 443.48L576.137 557.38L566.617 547.69L652.467 434.47ZM613.877 526.1C613.877 515.9 616.031 508.533 620.337 504C624.757 499.467 630.877 497.2 638.697 497.2C646.404 497.2 652.411 499.353 656.717 503.66C661.137 507.967 663.347 515.447 663.347 526.1C663.347 536.753 661.137 544.233 656.717 548.54C652.411 552.847 646.404 555 638.697 555C630.877 555 624.757 552.847 620.337 548.54C616.031 544.233 613.877 536.753 613.877 526.1ZM630.367 526.1C630.367 535.847 633.144 540.72 638.697 540.72C641.304 540.72 643.287 539.7 644.647 537.66C646.121 535.507 646.857 531.653 646.857 526.1C646.857 520.66 646.121 516.863 644.647 514.71C643.287 512.557 641.304 511.48 638.697 511.48C636.091 511.48 634.051 512.557 632.577 514.71C631.104 516.863 630.367 520.66 630.367 526.1Z" fill="black"/>
</svg>
