<svg width="41" height="41" viewBox="0 0 41 41" fill="none" xmlns="http://www.w3.org/2000/svg">
<path d="M37.943 16.483C37.8358 16.1673 37.6407 15.8901 37.3816 15.6849C37.1224 15.4797 36.8103 15.3553 36.483 15.3268L26.8231 13.8946L22.494 4.97341C22.355 4.68167 22.1379 4.43562 21.8677 4.26347C21.5975 4.09131 21.285 4 20.9661 4C20.6472 4 20.3347 4.09131 20.0645 4.26347C19.7942 4.43562 19.5772 4.68167 19.4382 4.97341L15.1091 13.8774L5.4492 15.3268C5.13499 15.3722 4.8396 15.5062 4.59653 15.7136C4.35347 15.921 4.17247 16.1935 4.07407 16.5002C3.984 16.7999 3.97592 17.1189 4.05069 17.4229C4.12546 17.7269 4.28027 18.0044 4.49849 18.2258L11.5099 25.1281L9.81226 34.9293C9.75165 35.2528 9.78339 35.5872 9.90372 35.893C10.024 36.1987 10.2279 36.4631 10.4913 36.6549C10.7481 36.8414 11.0508 36.9515 11.3657 36.9729C11.6806 36.9942 11.9951 36.9259 12.2739 36.7757L20.9661 32.1684L29.6243 36.7929C29.8626 36.9295 30.1317 37.0009 30.4052 37C30.7648 37.0013 31.1156 36.8865 31.4069 36.6721C31.6703 36.4804 31.8742 36.216 31.9945 35.9102C32.1148 35.6044 32.1465 35.2701 32.0859 34.9466L30.3883 25.1453L37.3997 18.243C37.6448 18.032 37.826 17.7545 37.9222 17.443C38.0183 17.1314 38.0255 16.7985 37.943 16.483ZM27.5022 23.3852C27.3031 23.581 27.1541 23.8233 27.0683 24.091C26.9825 24.3586 26.9624 24.6436 27.0099 24.921L28.2322 32.1511L21.8489 28.7C21.6033 28.5671 21.3292 28.4975 21.051 28.4975C20.7727 28.4975 20.4987 28.5671 20.253 28.7L13.8697 32.1511L15.0921 24.921C15.1395 24.6436 15.1194 24.3586 15.0336 24.091C14.9478 23.8233 14.7988 23.581 14.5997 23.3852L9.50668 18.2085L16.6539 17.1559C16.929 17.1171 17.1904 17.0102 17.4154 16.8447C17.6403 16.6793 17.8219 16.4603 17.9442 16.2069L20.9661 9.63245L24.1577 16.2241C24.28 16.4775 24.4616 16.6965 24.6866 16.862C24.9115 17.0275 25.173 17.1343 25.448 17.1732L32.5953 18.2258L27.5022 23.3852Z" fill="#FFDA00"/>
</svg>
