<svg width="41" height="41" viewBox="0 0 41 41" fill="none" xmlns="http://www.w3.org/2000/svg">
<path d="M37.5832 17.2542C37.754 16.4 37.0707 15.375 36.2165 15.375L26.479 14.0083L22.0373 5.125C21.8665 4.78333 21.6957 4.6125 21.354 4.44166C20.4998 3.92916 19.4748 4.27083 18.9623 5.125L14.6915 14.0083L4.954 15.375C4.4415 15.375 4.09984 15.5458 3.929 15.8875C3.24567 16.5708 3.24567 17.5958 3.929 18.2792L10.9332 25.1125L9.22484 34.85C9.22484 35.1917 9.22484 35.5333 9.39567 35.875C9.90817 36.7292 10.9332 37.0708 11.7873 36.5583L20.4998 31.9458L29.2123 36.5583C29.3832 36.7292 29.7248 36.7292 30.0665 36.7292C30.2373 36.7292 30.2373 36.7292 30.4082 36.7292C31.2623 36.5583 31.9457 35.7042 31.7748 34.6792L30.0665 24.9417L37.0707 18.1083C37.4123 17.9375 37.5832 17.5958 37.5832 17.2542Z" fill="#FFDA00"/>
</svg>
